<svg version="1.1" xmlns="http://www.w3.org/2000/svg" viewBox="0 0 1400.7799544769218 957.9900680478449" width="1400.7799544769218" height="957.9900680478449" filter="invert(93%) hue-rotate(180deg)">
  <!-- svg-source:excalidraw -->
  
  <defs>
    <style class="style-fonts">
      @font-face {
        font-family: "Virgil";
        src: url("https://file%2B.vscode-resource.vscode-cdn.net/c%3A/Users/mig8a/.vscode/extensions/pomdtr.excalidraw-editor-3.7.4/public//dist/excalidraw-assets/Virgil.woff2");
      }
      @font-face {
        font-family: "Cascadia";
        src: url("https://file%2B.vscode-resource.vscode-cdn.net/c%3A/Users/mig8a/.vscode/extensions/pomdtr.excalidraw-editor-3.7.4/public//dist/excalidraw-assets/Cascadia.woff2");
      }
      @font-face {
        font-family: "Assistant";
        src: url("https://file%2B.vscode-resource.vscode-cdn.net/c%3A/Users/mig8a/.vscode/extensions/pomdtr.excalidraw-editor-3.7.4/public//dist/excalidraw-assets/Assistant-Regular.woff2");
      }
    </style>
    
  </defs>
  <rect x="0" y="0" width="1400.7799544769218" height="957.9900680478449" fill="#ffffff"></rect><g stroke-linecap="round" transform="translate(216.71708453915403 465.8467057039386) rotate(268.7454515833653 196 25.666671752929688)"><path d="M12.83 0 C111.85 2.43, 208.89 1.3, 379.17 0 M12.83 0 C138.79 -0.5, 263.11 0.15, 379.17 0 M379.17 0 C388.26 -1.7, 391.48 4.17, 392 12.83 M379.17 0 C389.78 0.23, 389.78 5.06, 392 12.83 M392 12.83 C391.94 21.23, 393 31.32, 392 38.5 M392 12.83 C391.65 20.38, 391.73 30.32, 392 38.5 M392 38.5 C390.51 49.02, 385.77 52.38, 379.17 51.33 M392 38.5 C390.5 46.06, 389.2 50.1, 379.17 51.33 M379.17 51.33 C301.87 53.36, 222.67 51.3, 12.83 51.33 M379.17 51.33 C299.38 48.76, 220.24 49.06, 12.83 51.33 M12.83 51.33 C3.29 49.82, 1.35 46.59, 0 38.5 M12.83 51.33 C6.52 50.12, -1.32 49.04, 0 38.5 M0 38.5 C-0.22 32.05, 2.12 26.61, 0 12.83 M0 38.5 C0.68 30.47, -0.65 22.29, 0 12.83 M0 12.83 C0.64 4.43, 2.73 0.66, 12.83 0 M0 12.83 C0.1 5.42, 4.04 1.65, 12.83 0" stroke="#6741d9" stroke-width="2" fill="none"></path></g><g transform="translate(340.6871162774353 479.0133774568683) rotate(268.7454515833653 72.02996826171875 12.5)"><text x="72.02996826171875" y="0" font-family="Virgil, Segoe UI Emoji" font-size="20px" fill="#6741d9" text-anchor="middle" style="white-space: pre;" direction="ltr" dominant-baseline="text-before-edge">API GATEWAY</text></g><g stroke-linecap="round"><g transform="translate(197.0505501153259 365.1800797273761) rotate(0 81.5 -0.6666717529296875)"><path d="M-0.96 -1.1 C26.09 -1.43, 135.99 -1.41, 163.41 -1.37 M0.74 0.93 C27.56 0.76, 135.62 0.79, 162.67 0.14" stroke="#1e1e1e" stroke-width="1" fill="none"></path></g><g transform="translate(197.0505501153259 365.1800797273761) rotate(0 81.5 -0.6666717529296875)"><path d="M27.21 -11.43 C14.3 -6.9, 4.96 -2.6, -0.96 -1.1 M27.21 -11.43 C17.72 -7.31, 7.51 -3.47, -0.96 -1.1" stroke="#1e1e1e" stroke-width="1" fill="none"></path></g><g transform="translate(197.0505501153259 365.1800797273761) rotate(0 81.5 -0.6666717529296875)"><path d="M27.26 9.09 C14.24 5.52, 4.87 1.72, -0.96 -1.1 M27.26 9.09 C17.84 6.26, 7.62 3.15, -0.96 -1.1" stroke="#1e1e1e" stroke-width="1" fill="none"></path></g><g transform="translate(197.0505501153259 365.1800797273761) rotate(0 81.5 -0.6666717529296875)"><path d="M134.58 10.69 C143.78 7.43, 156.64 3.49, 162.67 0.14 M134.58 10.69 C144.25 7.5, 153.11 4.26, 162.67 0.14" stroke="#1e1e1e" stroke-width="1" fill="none"></path></g><g transform="translate(197.0505501153259 365.1800797273761) rotate(0 81.5 -0.6666717529296875)"><path d="M134.38 -9.83 C143.75 -4.99, 156.69 -0.83, 162.67 0.14 M134.38 -9.83 C144.02 -6.07, 152.95 -2.35, 162.67 0.14" stroke="#1e1e1e" stroke-width="1" fill="none"></path></g></g><mask></mask><g transform="translate(227.71708453915403 331.1800797273761) rotate(0 28.199974060058594 12.5)"><text x="0" y="0" font-family="Virgil, Segoe UI Emoji" font-size="20px" fill="#1e1e1e" text-anchor="start" style="white-space: pre;" direction="ltr" dominant-baseline="text-before-edge">HTTP</text></g><g stroke-linecap="round"><g transform="translate(193.8268215479642 483.7142110741355) rotate(0 81.5 -0.6666717529296875)"><path d="M-0.29 -0.62 C26.53 -1.06, 134.69 -2.09, 161.88 -2.3 M1.76 1.66 C28.85 1.33, 137.3 -0.85, 164 -1.28" stroke="#1e1e1e" stroke-width="1" fill="none"></path></g><g transform="translate(193.8268215479642 483.7142110741355) rotate(0 81.5 -0.6666717529296875)"><path d="M27.79 -11.19 C16.09 -9.11, 4.83 -3.53, -0.29 -0.62 M27.79 -11.19 C20.72 -9.6, 13.42 -5.18, -0.29 -0.62" stroke="#1e1e1e" stroke-width="1" fill="none"></path></g><g transform="translate(193.8268215479642 483.7142110741355) rotate(0 81.5 -0.6666717529296875)"><path d="M28.01 9.33 C16.18 3.6, 4.83 1.37, -0.29 -0.62 M28.01 9.33 C20.88 5.75, 13.52 5, -0.29 -0.62" stroke="#1e1e1e" stroke-width="1" fill="none"></path></g><g transform="translate(193.8268215479642 483.7142110741355) rotate(0 81.5 -0.6666717529296875)"><path d="M136 9.5 C145.59 3.59, 155.67 1.05, 164 -1.28 M136 9.5 C143.04 6.26, 149.86 5.3, 164 -1.28" stroke="#1e1e1e" stroke-width="1" fill="none"></path></g><g transform="translate(193.8268215479642 483.7142110741355) rotate(0 81.5 -0.6666717529296875)"><path d="M135.63 -11.02 C145.41 -9.12, 155.63 -3.85, 164 -1.28 M135.63 -11.02 C142.77 -9.09, 149.69 -4.88, 164 -1.28" stroke="#1e1e1e" stroke-width="1" fill="none"></path></g></g><mask></mask><g transform="translate(224.4933559717923 449.7142110741355) rotate(0 28.199974060058594 12.5)"><text x="0" y="0" font-family="Virgil, Segoe UI Emoji" font-size="20px" fill="#1e1e1e" text-anchor="start" style="white-space: pre;" direction="ltr" dominant-baseline="text-before-edge">HTTP</text></g><g stroke-linecap="round"><g transform="translate(190.1600735010892 612.0474630272605) rotate(0 81.5 -0.6666717529296875)"><path d="M-0.08 0.88 C27.03 0.52, 134.78 -1.44, 161.91 -1.95 M-1.57 0.3 C25.95 0.07, 136.82 -0.47, 164.04 -0.73" stroke="#1e1e1e" stroke-width="1" fill="none"></path></g><g transform="translate(190.1600735010892 612.0474630272605) rotate(0 81.5 -0.6666717529296875)"><path d="M27.94 -9.86 C22.73 -9.14, 13.54 -5.24, -0.08 0.88 M27.94 -9.86 C21.47 -8.07, 15.47 -4.7, -0.08 0.88" stroke="#1e1e1e" stroke-width="1" fill="none"></path></g><g transform="translate(190.1600735010892 612.0474630272605) rotate(0 81.5 -0.6666717529296875)"><path d="M28.29 10.66 C22.96 6.48, 13.69 5.47, -0.08 0.88 M28.29 10.66 C21.6 7.72, 15.52 6.36, -0.08 0.88" stroke="#1e1e1e" stroke-width="1" fill="none"></path></g><g transform="translate(190.1600735010892 612.0474630272605) rotate(0 81.5 -0.6666717529296875)"><path d="M135.92 9.73 C144.1 5.42, 148.32 4.25, 164.04 -0.73 M135.92 9.73 C142.25 6.36, 149.19 4.85, 164.04 -0.73" stroke="#1e1e1e" stroke-width="1" fill="none"></path></g><g transform="translate(190.1600735010892 612.0474630272605) rotate(0 81.5 -0.6666717529296875)"><path d="M135.78 -10.8 C144.02 -10.2, 148.29 -6.46, 164.04 -0.73 M135.78 -10.8 C142.28 -9.43, 149.26 -6.21, 164.04 -0.73" stroke="#1e1e1e" stroke-width="1" fill="none"></path></g></g><mask></mask><g transform="translate(220.8266079249173 578.0474630272605) rotate(0 28.199974060058594 12.5)"><text x="0" y="0" font-family="Virgil, Segoe UI Emoji" font-size="20px" fill="#1e1e1e" text-anchor="start" style="white-space: pre;" direction="ltr" dominant-baseline="text-before-edge">HTTP</text></g><g stroke-linecap="round" transform="translate(146.1505100900755 327.73202588319555) rotate(0 12.185801315762859 11.215866760242818)"><path d="M14.83 0.12 C17.21 0.59, 20.06 2.7, 21.64 4.66 C23.23 6.63, 24.39 9.66, 24.33 11.94 C24.28 14.22, 23.1 16.64, 21.3 18.34 C19.5 20.04, 16.14 21.82, 13.52 22.13 C10.91 22.43, 7.71 21.35, 5.6 20.15 C3.49 18.95, 1.57 17.21, 0.87 14.94 C0.17 12.67, 0.44 8.78, 1.4 6.52 C2.35 4.27, 4.19 2.44, 6.61 1.39 C9.03 0.33, 14.3 0.2, 15.9 0.2 C17.51 0.2, 16.36 1.17, 16.24 1.38 M11.28 0.41 C13.62 0.18, 17.05 1.65, 19.22 3.04 C21.39 4.44, 23.52 6.46, 24.27 8.78 C25.02 11.11, 24.87 14.94, 23.72 17 C22.57 19.06, 19.79 20.3, 17.38 21.14 C14.97 21.98, 11.8 22.79, 9.25 22.05 C6.7 21.31, 3.55 18.73, 2.06 16.71 C0.56 14.69, -0.15 12.31, 0.27 9.93 C0.69 7.56, 2.64 4.21, 4.56 2.47 C6.48 0.74, 10.66 -0.19, 11.77 -0.49 C12.87 -0.78, 11.07 0.55, 11.18 0.7" stroke="#e03131" stroke-width="2" fill="none"></path></g><g stroke-linecap="round"><g transform="translate(156.94980442020847 350.03943455795417) rotate(0 -0.5979361259911684 13.597341368913789)"><path d="M0.49 0.2 C0.21 4.63, -1.28 22.68, -1.59 27.14 M0.08 -0.17 C-0.03 4.58, -0.25 23.21, -0.57 27.8" stroke="#e03131" stroke-width="2" fill="none"></path></g></g><mask></mask><g stroke-linecap="round"><g transform="translate(155.86059816365378 377.93059761916925) rotate(0 5.382566233397654 8.292369899957748)"><path d="M-0.4 -0.06 C1.28 2.63, 8.69 13.54, 10.59 16.31 M0.4 -0.57 C1.95 2.17, 8.34 13.91, 10.07 16.87" stroke="#e03131" stroke-width="2" fill="none"></path></g></g><mask></mask><g stroke-linecap="round"><g transform="translate(155.3105927257543 377.3634676323975) rotate(0 -5.096337588235116 7.450266810925086)"><path d="M-0.17 -0.28 C-1.76 2.21, -8.3 12.31, -9.94 14.87 M0.74 0.77 C-0.87 3.36, -8.41 13.33, -10.24 15.56" stroke="#e03131" stroke-width="2" fill="none"></path></g></g><mask></mask><g stroke-linecap="round"><g transform="translate(142.08295870880147 365.4925989590822) rotate(0 7.11643253026989 -4.558038205714126)"><path d="M0.25 -0.03 C2.68 -1.47, 12.18 -7.37, 14.42 -8.92 M-0.28 -0.52 C2.11 -2.1, 11.58 -8.4, 14.08 -9.79" stroke="#e03131" stroke-width="2" fill="none"></path></g></g><mask></mask><g stroke-linecap="round"><g transform="translate(157.1188724868075 356.641146724313) rotate(0 4.520403805660578 5.672391959009332)"><path d="M0.19 0.19 C1.56 2.05, 7.06 9.28, 8.5 11.14 M-0.38 -0.18 C1.13 1.76, 8 9.71, 9.45 11.73" stroke="#e03131" stroke-width="2" fill="none"></path></g></g><mask></mask><g stroke-linecap="round" transform="translate(151.07618311922124 456.30610076046827) rotate(0 10.791543795031941 9.932585819025093)"><path d="M8.94 0.15 C11.01 -0.56, 13.44 -0.42, 15.36 0.65 C17.27 1.72, 19.43 4.49, 20.4 6.58 C21.37 8.68, 21.89 11.28, 21.2 13.2 C20.51 15.11, 18.15 17.05, 16.26 18.08 C14.36 19.12, 12.02 19.61, 9.82 19.4 C7.63 19.2, 4.74 18.3, 3.09 16.83 C1.44 15.37, -0.01 12.82, -0.09 10.61 C-0.17 8.41, 1.1 5.27, 2.59 3.6 C4.08 1.94, 7.73 1.19, 8.86 0.62 C9.99 0.05, 9.35 0.12, 9.37 0.21 M9.64 -0.19 C11.92 -0.61, 15.01 0.55, 16.84 1.7 C18.68 2.85, 20 4.64, 20.66 6.71 C21.31 8.78, 21.55 12.07, 20.76 14.12 C19.97 16.18, 18.03 18.01, 15.92 19.04 C13.81 20.06, 10.33 20.8, 8.11 20.28 C5.89 19.75, 3.95 17.64, 2.58 15.88 C1.21 14.12, -0.2 11.76, -0.1 9.71 C-0.01 7.66, 1.54 5.07, 3.16 3.57 C4.78 2.06, 8.54 1.17, 9.61 0.68 C10.68 0.19, 9.7 0.44, 9.58 0.6" stroke="#e8590c" stroke-width="2" fill="none"></path></g><g stroke-linecap="round"><g transform="translate(160.97921645815768 476.06075949666115) rotate(0 -0.5295223287383521 12.041580284820725)"><path d="M-0.47 -0.19 C-0.51 3.92, -0.46 20.61, -0.57 24.57 M0.29 -0.76 C0.25 3.21, -0.44 19.74, -0.75 23.85" stroke="#e8590c" stroke-width="2" fill="none"></path></g></g><mask></mask><g stroke-linecap="round"><g transform="translate(159.7164891199743 501.1103016197119) rotate(0 4.766711497440355 7.343585425460901)"><path d="M0.49 0.49 C2.14 2.88, 8.03 11.89, 9.44 14.19 M0.08 0.26 C1.69 2.72, 7.31 12.23, 8.97 14.63" stroke="#e8590c" stroke-width="2" fill="none"></path></g></g><mask></mask><g stroke-linecap="round"><g transform="translate(159.4196028705527 500.68922580002834) rotate(0 -4.58914208708012 6.287108916541058)"><path d="M-0.09 -0.5 C-1.79 1.45, -8.28 9.96, -9.71 12.16 M-0.8 0.43 C-2.38 2.67, -7.42 10.49, -8.76 12.65" stroke="#e8590c" stroke-width="2" fill="none"></path></g></g><mask></mask><g stroke-linecap="round"><g transform="translate(151.43482207988563 480.79481697949893) rotate(0 4.6302887600745635 4.444349621738979)"><path d="M-0.35 -0.27 C1.26 1.28, 7.93 7.49, 9.56 8.98 M0.12 0.36 C1.71 1.83, 7.9 6.97, 9.43 8.4" stroke="#e8590c" stroke-width="2" fill="none"></path></g></g><mask></mask><g stroke-linecap="round"><g transform="translate(161.45223609147763 489.74845950415045) rotate(0 6.672587665380263 -3.763246473705294)"><path d="M0.46 0.14 C2.82 -1.1, 11.51 -6.66, 13.61 -7.85 M0.03 -0.27 C2.39 -1.41, 11.23 -6.07, 13.32 -7.32" stroke="#e8590c" stroke-width="2" fill="none"></path></g></g><mask></mask><g stroke-linecap="round"><g transform="translate(147.61617184131296 458.1903168343053) rotate(0 15.504932770903139 3.1544680570808055)"><path d="M0.27 -0.33 C5.31 0.79, 25.68 5.68, 30.74 6.84 M-0.26 0.69 C4.93 1.66, 26.5 5.3, 31.83 6.14" stroke="#e8590c" stroke-width="2" fill="none"></path></g></g><mask></mask><g stroke-linecap="round" transform="translate(157.48572913491012 438.035470925615) rotate(10.74366233694554 7.992920094879139 11.234041972028677)"><path d="M0.59 0.77 L15.52 0.83 L15.63 23.13 L-0.19 23.13" stroke="none" stroke-width="0" fill="#fff"></path><path d="M0 0 C6.34 -0.55, 11.59 0.39, 15.99 0 M0 0 C4.28 -0.01, 9.31 0.13, 15.99 0 M15.99 0 C15.33 5.91, 16.19 13.31, 15.99 22.47 M15.99 0 C15.85 5.83, 15.98 12.03, 15.99 22.47 M15.99 22.47 C12.14 22.55, 6.68 22.29, 0 22.47 M15.99 22.47 C11.71 22.77, 7.11 22.63, 0 22.47 M0 22.47 C0.83 16.16, -0.15 10.66, 0 0 M0 22.47 C-0.19 17.23, -0.47 12.47, 0 0" stroke="#e8590c" stroke-width="2" fill="none"></path></g><g stroke-linecap="round"><g transform="translate(161.9688457487223 470.56756808785804) rotate(0 0.38594385872679027 2.158656021617219)" fill-rule="evenodd"><path d="M-1.48 1.28 C-0.07 1.48, 6.11 2.01, 8.15 2.2 C10.2 2.4, 9.69 2.61, 10.76 2.44 C11.83 2.28, 14.24 0.61, 14.59 1.23 C14.94 1.85, 13.84 5.41, 12.87 6.17 C11.91 6.93, 11.07 6.1, 8.8 5.8 C6.53 5.5, 1.94 4.39, -0.74 4.39 C-3.43 4.38, -5.2 6.66, -7.31 5.76 C-9.42 4.86, -13.24 -0.14, -13.4 -1 C-13.57 -1.86, -10.77 0.66, -8.3 0.6 C-5.83 0.54, 0.09 -1.14, 1.43 -1.37" stroke="none" stroke-width="0" fill="#000" fill-rule="evenodd"></path><path d="M-0.41 0.31 C0.98 0.7, 6.14 2.39, 8.09 2.85 C10.04 3.3, 10.46 3.34, 11.3 3.04 C12.13 2.74, 12.97 0.68, 13.11 1.05 C13.25 1.41, 13.07 4.53, 12.15 5.22 C11.23 5.91, 9.63 5.58, 7.59 5.18 C5.55 4.78, 2.55 2.97, -0.09 2.84 C-2.73 2.7, -6.23 5.05, -8.25 4.39 C-10.26 3.73, -12.27 -0.73, -12.18 -1.11 C-12.08 -1.5, -9.65 1.9, -7.66 2.09 C-5.67 2.28, -1.49 0.31, -0.23 0.05 M0.38 -0.01 C1.75 0.69, 5.99 3.13, 7.78 3.49 C9.57 3.85, 10.23 2.49, 11.11 2.17 C11.99 1.85, 12.97 1.02, 13.08 1.58 C13.18 2.14, 12.55 5, 11.73 5.52 C10.92 6.04, 10.09 5, 8.17 4.7 C6.25 4.4, 3.03 3.77, 0.2 3.71 C-2.63 3.64, -6.66 4.94, -8.81 4.29 C-10.96 3.64, -12.72 0.18, -12.71 -0.2 C-12.7 -0.58, -10.85 1.88, -8.77 2 C-6.69 2.12, -1.54 0.76, -0.21 0.52" stroke="#e8590c" stroke-width="1" fill="none"></path></g></g><mask></mask><g stroke-linecap="round" transform="translate(153.41760533213312 462.4236439909136) rotate(0 3.5353857650333396 2.8152663456998255)"><path d="M3.91 0.31 C4.61 0.35, 5.68 0.39, 6.2 0.77 C6.73 1.15, 7.05 1.99, 7.05 2.58 C7.05 3.18, 6.63 3.8, 6.2 4.33 C5.77 4.87, 5.22 5.59, 4.49 5.81 C3.77 6.02, 2.55 5.93, 1.88 5.6 C1.2 5.27, 0.74 4.44, 0.46 3.84 C0.17 3.25, -0.07 2.58, 0.16 2.01 C0.39 1.44, 1.17 0.81, 1.83 0.43 C2.49 0.05, 3.73 -0.24, 4.14 -0.28 C4.54 -0.33, 4.32 0.05, 4.26 0.14 M3.83 0.37 C4.54 0.34, 5.58 0.43, 6.08 0.8 C6.57 1.18, 6.67 1.99, 6.8 2.63 C6.93 3.26, 7.24 4.16, 6.87 4.62 C6.5 5.08, 5.34 5.32, 4.58 5.4 C3.82 5.48, 2.93 5.35, 2.33 5.1 C1.72 4.84, 1.35 4.35, 0.95 3.86 C0.55 3.37, -0.03 2.68, -0.05 2.15 C-0.07 1.63, 0.2 1.01, 0.83 0.71 C1.46 0.42, 3.35 0.43, 3.75 0.39 C4.15 0.35, 3.3 0.43, 3.22 0.47" stroke="#e8590c" stroke-width="1" fill="none"></path></g><g stroke-linecap="round" transform="translate(156.6261519030088 464.64433204658064) rotate(0 0.18445490947999588 0.2422135174989819)"><path d="M0.32 -0.07 C0.35 -0.13, 0.31 0.02, 0.28 0.04 C0.25 0.06, 0.12 -0.03, 0.15 0.07 C0.17 0.16, 0.43 0.51, 0.42 0.61 C0.42 0.72, 0.15 0.75, 0.12 0.7 C0.1 0.66, 0.28 0.4, 0.27 0.33 C0.26 0.27, 0.06 0.35, 0.06 0.32 C0.07 0.29, 0.27 0.24, 0.3 0.15 C0.33 0.06, 0.23 -0.22, 0.25 -0.23 C0.27 -0.25, 0.47 0.03, 0.43 0.06 C0.4 0.09, 0.08 -0.08, 0.03 -0.04 M0.52 0.18 C0.46 0.18, 0.09 0.35, 0.1 0.42 C0.12 0.5, 0.6 0.68, 0.6 0.66 C0.6 0.65, 0.17 0.43, 0.1 0.33 C0.03 0.24, 0.09 0.13, 0.17 0.08 C0.24 0.04, 0.59 0.04, 0.55 0.05 C0.51 0.06, 0.08 0.1, -0.07 0.12 C-0.22 0.15, -0.44 0.15, -0.37 0.2 C-0.3 0.26, 0.31 0.4, 0.36 0.44 C0.42 0.47, 0.01 0.43, -0.04 0.41 C-0.1 0.4, -0.01 0.34, 0.01 0.34" stroke="#e8590c" stroke-width="1" fill="none"></path></g><g stroke-linecap="round" transform="translate(166.33146123110714 465.480900272404) rotate(0 0.18631809038384972 0.31674075365253884)"><path d="M0.2 0 C0.18 0, 0.07 -0.1, 0.11 -0.01 C0.15 0.09, 0.43 0.45, 0.44 0.57 C0.46 0.7, 0.2 0.77, 0.19 0.75 C0.18 0.74, 0.37 0.52, 0.36 0.49 C0.35 0.45, 0.13 0.56, 0.13 0.54 C0.12 0.52, 0.3 0.47, 0.31 0.36 C0.33 0.26, 0.2 -0.04, 0.21 -0.09 C0.21 -0.13, 0.37 0.1, 0.35 0.11 C0.33 0.12, 0.09 -0.07, 0.06 -0.04 C0.03 -0.02, 0.14 0.2, 0.17 0.26 M0.01 0.37 C0.03 0.42, 0.53 0.57, 0.55 0.56 C0.57 0.54, 0.18 0.34, 0.13 0.26 C0.08 0.19, 0.17 0.13, 0.26 0.12 C0.35 0.11, 0.71 0.17, 0.66 0.21 C0.62 0.25, 0.18 0.32, 0.01 0.36 C-0.16 0.4, -0.41 0.41, -0.36 0.45 C-0.31 0.49, 0.27 0.61, 0.3 0.61 C0.34 0.61, -0.1 0.51, -0.15 0.46 C-0.19 0.42, -0.01 0.35, 0.03 0.33 C0.08 0.31, 0.11 0.42, 0.11 0.34" stroke="#e8590c" stroke-width="1" fill="none"></path></g><g stroke-linecap="round" transform="translate(148.3893282320371 575.3848117736013) rotate(0 11.481045426088656 12.598108921620508)"><path d="M9.39 -0.08 C11.7 -0.74, 14.91 0.62, 17.02 2.02 C19.12 3.42, 21.2 5.98, 22.02 8.34 C22.83 10.7, 22.7 13.66, 21.9 16.2 C21.11 18.74, 19.24 22.15, 17.26 23.57 C15.28 24.99, 12.45 25.07, 10 24.71 C7.56 24.35, 4.33 23.34, 2.59 21.4 C0.84 19.46, -0.4 15.86, -0.46 13.05 C-0.52 10.25, 0.44 6.72, 2.23 4.59 C4.02 2.46, 8.78 1.01, 10.27 0.25 C11.76 -0.5, 11.26 -0.18, 11.17 0.08 M14.28 0.36 C16.58 0.56, 19.46 1.87, 20.9 3.96 C22.35 6.05, 23.12 10, 22.96 12.9 C22.8 15.8, 21.61 19.29, 19.96 21.38 C18.31 23.47, 15.46 25.07, 13.05 25.44 C10.64 25.82, 7.54 25.08, 5.51 23.64 C3.49 22.21, 1.66 19.41, 0.91 16.82 C0.15 14.23, 0.18 10.6, 0.99 8.12 C1.79 5.63, 3.73 3.13, 5.75 1.9 C7.77 0.67, 11.67 1.03, 13.09 0.74 C14.52 0.44, 14.19 0.05, 14.29 0.15" stroke="#846358" stroke-width="2" fill="none"></path></g><g stroke-linecap="round"><g transform="translate(156.52193822408026 600.7748240824012) rotate(0 -0.646947355298721 14.711879171258772)"><path d="M-0.44 -0.27 C-0.62 4.58, -0.59 24.68, -0.79 29.64 M0.33 0.78 C0.1 5.7, -0.82 23.89, -0.97 28.78" stroke="#846358" stroke-width="2" fill="none"></path></g></g><mask></mask><g stroke-linecap="round"><g transform="translate(155.02383797622247 629.8416482197043) rotate(0 4.013891272984267 8.190538760060292)"><path d="M0.5 0.21 C1.85 3, 6.32 13.78, 7.66 16.44 M0.09 -0.16 C1.66 2.75, 7.31 14.36, 8.71 17.18" stroke="#846358" stroke-width="2" fill="none"></path></g></g><mask></mask><g stroke-linecap="round"><g transform="translate(154.6245170932889 629.2392163875968) rotate(0 -6.4672063427497335 7.4077876754106455)"><path d="M-0.37 0.06 C-2.52 2.47, -10.36 12.28, -12.39 14.65 M0.45 -0.38 C-1.77 2.09, -10.36 12.76, -12.55 15.27" stroke="#846358" stroke-width="2" fill="none"></path></g></g><mask></mask><g stroke-linecap="round"><g transform="translate(144.5225023501655 604.6506103156343) rotate(0 5.6570854617915245 5.429913108022504)"><path d="M0.54 -0.16 C2.55 1.55, 9.99 8.55, 11.71 10.35 M0.16 -0.72 C2.16 1.03, 9.51 8.81, 11.48 10.78" stroke="#846358" stroke-width="2" fill="none"></path></g></g><mask></mask><g stroke-linecap="round"><g transform="translate(154.98694217241018 614.7827340061679) rotate(0 8.152277456178382 -4.597770899107729)"><path d="M0.39 -0.51 C2.95 -2.06, 13.17 -8.03, 15.87 -9.44 M-0.07 0.41 C2.61 -1.05, 14.14 -7.14, 16.88 -8.86" stroke="#846358" stroke-width="2" fill="none"></path></g></g><mask></mask><g stroke-linecap="round"><g transform="translate(150.85600436795653 577.8207569606848) rotate(0 2.4227434546291704 -3.5645706986265395)" fill-rule="evenodd"><path d="M1.33 0.28 C3.04 -1.7, 8.43 -11.79, 11.61 -11.81 C14.78 -11.83, 19.18 -2.29, 20.38 0.15 C21.59 2.59, 19.25 2.19, 18.83 2.84 C18.4 3.48, 23.57 4.15, 17.85 4 C12.13 3.85, -10.03 2.66, -15.49 1.92 C-20.95 1.19, -17.65 -0.07, -14.92 -0.41 C-12.2 -0.75, -1.63 -0.26, 0.86 -0.1" stroke="none" stroke-width="0" fill="#4c6ef5" fill-rule="evenodd"></path><path d="M-0.44 -0.24 C1.29 -1.82, 7.36 -9.99, 10.76 -10.01 C14.17 -10.03, 18.51 -2.22, 20 -0.35 C21.5 1.51, 19.99 0.67, 19.73 1.2 C19.48 1.73, 24.37 2.75, 18.49 2.83 C12.61 2.91, -9.9 2.21, -15.55 1.69 C-21.19 1.17, -17.99 0.09, -15.38 -0.29 C-12.76 -0.68, -2.55 -0.71, 0.15 -0.62 M0.34 0.82 C1.98 -0.88, 7 -10.72, 10.46 -10.85 C13.93 -10.97, 19.79 -1.97, 21.12 0.08 C22.45 2.13, 18.98 0.98, 18.44 1.44 C17.9 1.9, 23.47 2.87, 17.89 2.86 C12.32 2.85, -9.52 1.96, -15 1.37 C-20.48 0.77, -17.43 -0.59, -15 -0.71 C-12.57 -0.83, -2.98 0.57, -0.42 0.66" stroke="#846358" stroke-width="1" fill="none"></path></g></g><mask></mask><g stroke-linecap="round"><g transform="translate(161.76939464615975 568.7729080140712) rotate(0 1.7541296069188945 -5.318525598015469)"><path d="M0 0 C-0.04 -0.88, 0.9 -4.39, -0.26 -5.27 C-1.43 -6.15, -5.28 -4.38, -7 -5.27 C-8.72 -6.17, -12.94 -11.11, -10.58 -10.64 C-8.21 -10.16, 3.1 -3.16, 7.21 -2.42 C11.32 -1.68, 15.17 -5.79, 14.08 -6.18 C13 -6.58, 2.94 -5.02, 0.71 -4.78 M0 0 C-0.04 -0.88, 0.9 -4.39, -0.26 -5.27 C-1.43 -6.15, -5.28 -4.38, -7 -5.27 C-8.72 -6.17, -12.94 -11.11, -10.58 -10.64 C-8.21 -10.16, 3.1 -3.16, 7.21 -2.42 C11.32 -1.68, 15.17 -5.79, 14.08 -6.18 C13 -6.58, 2.94 -5.02, 0.71 -4.78" stroke="#846358" stroke-width="1" fill="none"></path></g></g><mask></mask><g stroke-linecap="round"><g transform="translate(457.6124676766583 329.9559299951479) rotate(338.38639217205315 86.88379310288565 -1.7577822789079391)"><path d="M-1.1 -0.45 C27.99 -1.25, 144.05 -4.3, 173.37 -4.62 M0.53 -1.73 C29.52 -2.44, 143.2 -3.27, 172.21 -3.66" stroke="#1e1e1e" stroke-width="1" fill="none"></path></g><g transform="translate(457.6124676766583 329.9559299951479) rotate(338.38639217205315 86.88379310288565 -1.7577822789079391)"><path d="M26.83 -11.42 C20.39 -10.1, 13.59 -5.46, -1.1 -0.45 M26.83 -11.42 C16.24 -5.97, 5.5 -2.07, -1.1 -0.45" stroke="#1e1e1e" stroke-width="1" fill="none"></path></g><g transform="translate(457.6124676766583 329.9559299951479) rotate(338.38639217205315 86.88379310288565 -1.7577822789079391)"><path d="M27.35 9.1 C20.77 6.22, 13.86 6.66, -1.1 -0.45 M27.35 9.1 C16.74 6.41, 5.79 2.18, -1.1 -0.45" stroke="#1e1e1e" stroke-width="1" fill="none"></path></g><g transform="translate(457.6124676766583 329.9559299951479) rotate(338.38639217205315 86.88379310288565 -1.7577822789079391)"><path d="M144.12 6.89 C149.1 4.32, 153.75 4.55, 172.21 -3.66 M144.12 6.89 C155.95 3.43, 167.42 -1.2, 172.21 -3.66" stroke="#1e1e1e" stroke-width="1" fill="none"></path></g><g transform="translate(457.6124676766583 329.9559299951479) rotate(338.38639217205315 86.88379310288565 -1.7577822789079391)"><path d="M143.91 -13.63 C148.97 -12.01, 153.66 -7.57, 172.21 -3.66 M143.91 -13.63 C155.63 -8.95, 167.19 -5.44, 172.21 -3.66" stroke="#1e1e1e" stroke-width="1" fill="none"></path></g></g><mask></mask><g transform="translate(483.20999169712707 307.33378549503493) rotate(338.38639217205315 28.199974060058594 12.5)"><text x="0" y="0" font-family="Virgil, Segoe UI Emoji" font-size="20px" fill="#1e1e1e" text-anchor="start" style="white-space: pre;" direction="ltr" dominant-baseline="text-before-edge">HTTP</text></g><g stroke-linecap="round"><g transform="translate(467.689703533527 476.8394019914798) rotate(0 81.5 -0.6666717529296875)"><path d="M1.03 1.16 C28.09 1.25, 134.8 -0.32, 161.91 -0.55 M0.12 0.72 C27.56 0.57, 136.85 -1.81, 164.05 -2.27" stroke="#1e1e1e" stroke-width="1" fill="none"></path></g><g transform="translate(467.689703533527 476.8394019914798) rotate(0 81.5 -0.6666717529296875)"><path d="M29.12 -9.39 C23.47 -8.16, 15.35 -2.35, 1.03 1.16 M29.12 -9.39 C18.72 -4.7, 7.25 -0.14, 1.03 1.16" stroke="#1e1e1e" stroke-width="1" fill="none"></path></g><g transform="translate(467.689703533527 476.8394019914798) rotate(0 81.5 -0.6666717529296875)"><path d="M29.33 11.13 C23.81 6.9, 15.64 7.24, 1.03 1.16 M29.33 11.13 C18.66 7.79, 7.11 4.31, 1.03 1.16" stroke="#1e1e1e" stroke-width="1" fill="none"></path></g><g transform="translate(467.689703533527 476.8394019914798) rotate(0 81.5 -0.6666717529296875)"><path d="M136.06 8.54 C145.55 3.6, 152.38 3.71, 164.05 -2.27 M136.06 8.54 C147.41 4.61, 157.89 0.8, 164.05 -2.27" stroke="#1e1e1e" stroke-width="1" fill="none"></path></g><g transform="translate(467.689703533527 476.8394019914798) rotate(0 81.5 -0.6666717529296875)"><path d="M135.66 -11.98 C145.07 -11.45, 152 -5.87, 164.05 -2.27 M135.66 -11.98 C147.36 -7.88, 158 -3.65, 164.05 -2.27" stroke="#1e1e1e" stroke-width="1" fill="none"></path></g></g><mask></mask><g transform="translate(498.3562379573551 442.8394019914798) rotate(0 28.199974060058594 12.5)"><text x="0" y="0" font-family="Virgil, Segoe UI Emoji" font-size="20px" fill="#1e1e1e" text-anchor="start" style="white-space: pre;" direction="ltr" dominant-baseline="text-before-edge">HTTP</text></g><g stroke-linecap="round"><g transform="translate(459.6714203294064 648.4962423735685) rotate(29.311508649762402 81.5 -0.6666717529296875)"><path d="M0.71 1.1 C28.24 0.84, 136.96 -0.46, 164.11 -0.78 M-0.38 0.63 C27.18 -0.06, 136.49 -2.02, 163.74 -2.61" stroke="#1e1e1e" stroke-width="1" fill="none"></path></g><g transform="translate(459.6714203294064 648.4962423735685) rotate(29.311508649762402 81.5 -0.6666717529296875)"><path d="M28.78 -9.48 C24.81 -5.26, 18.04 -3.91, 0.71 1.1 M28.78 -9.48 C19.22 -6.4, 10.02 -1.08, 0.71 1.1" stroke="#1e1e1e" stroke-width="1" fill="none"></path></g><g transform="translate(459.6714203294064 648.4962423735685) rotate(29.311508649762402 81.5 -0.6666717529296875)"><path d="M29.01 11.04 C24.86 10.97, 18.04 8.04, 0.71 1.1 M29.01 11.04 C19.37 7.09, 10.09 5.37, 0.71 1.1" stroke="#1e1e1e" stroke-width="1" fill="none"></path></g><g transform="translate(459.6714203294064 648.4962423735685) rotate(29.311508649762402 81.5 -0.6666717529296875)"><path d="M135.76 8.21 C143.37 7.63, 148.32 4.51, 163.74 -2.61 M135.76 8.21 C145.41 3.48, 155.44 1.46, 163.74 -2.61" stroke="#1e1e1e" stroke-width="1" fill="none"></path></g><g transform="translate(459.6714203294064 648.4962423735685) rotate(29.311508649762402 81.5 -0.6666717529296875)"><path d="M135.36 -12.31 C143.18 -8.6, 148.21 -7.43, 163.74 -2.61 M135.36 -12.31 C145.15 -10.01, 155.32 -4.99, 163.74 -2.61" stroke="#1e1e1e" stroke-width="1" fill="none"></path></g></g><mask></mask><g transform="translate(503.4386089986764 605.894294526301) rotate(29.311508649762402 28.199974060058594 12.5)"><text x="0" y="0" font-family="Virgil, Segoe UI Emoji" font-size="20px" fill="#1e1e1e" text-anchor="start" style="white-space: pre;" direction="ltr" dominant-baseline="text-before-edge">HTTP</text></g><g stroke-linecap="round" transform="translate(1182.1931802961349 283.98832058688686) rotate(0 56.32368262651721 18.386723501592797)"><path d="M58.82 1.8 L110.97 17.3 L56.94 37.69 L-0.45 17.47" stroke="none" stroke-width="0" fill="#fd8888" fill-rule="evenodd"></path><path d="M57 0 C79.64 5.96, 98.78 16.5, 112.65 19 M57 0 C75.49 6.2, 93.51 12.38, 112.65 19 M112.65 19 C94.91 24.8, 79.06 31.65, 57 36.77 M112.65 19 C96.23 24.52, 77.89 29.61, 57 36.77 M57 36.77 C41.26 31.31, 26.69 28.29, 0 19 M57 36.77 C42.17 32.88, 27.87 28.41, 0 19 M0 19 C21.26 12.48, 38.98 7.63, 57 0 M0 19 C18.13 12.8, 35.67 6.27, 57 0" stroke="#c92a2a" stroke-width="1" fill="none"></path></g><g stroke-linecap="round" transform="translate(1182.1931802961349 275.1165406586283) rotate(0 56.32368262651721 18.386723501592797)"><path d="M55.32 -1.7 L112.59 19.92 L56.55 35.24 L-0.12 18.44" stroke="none" stroke-width="0" fill="#fd8888" fill-rule="evenodd"></path><path d="M57 0 C71.68 7.47, 88.9 9.41, 112.65 19 M57 0 C68.82 3.75, 81.33 7.9, 112.65 19 M112.65 19 C93.56 26.66, 72.22 31.16, 57 36.77 M112.65 19 C100.6 23.16, 88.38 27.68, 57 36.77 M57 36.77 C39.59 32.01, 21.92 26.66, 0 19 M57 36.77 C40.08 32.56, 22.77 25.41, 0 19 M0 19 C20.59 13.92, 41.57 6, 57 0 M0 19 C17.94 12.34, 38.39 7.38, 57 0" stroke="#c92a2a" stroke-width="1" fill="none"></path></g><g stroke-linecap="round" transform="translate(1182.1931802961349 262.48598106391626) rotate(0 56.32368262651721 18.386723501592797)"><path d="M56.94 0.92 L112.2 17.47 L56.88 36.21 L-1.5 17.96" stroke="none" stroke-width="0" fill="#fd8888" fill-rule="evenodd"></path><path d="M57 0 C70.13 2.18, 80.42 8.43, 112.65 19 M57 0 C70.59 4.33, 84.64 9.49, 112.65 19 M112.65 19 C96.55 23.8, 78.26 31.62, 57 36.77 M112.65 19 C92.88 25.94, 73.92 31.05, 57 36.77 M57 36.77 C41.41 33.21, 27.52 27.72, 0 19 M57 36.77 C36.37 29.74, 15.64 25.03, 0 19 M0 19 C18.33 13.34, 36.42 6.36, 57 0 M0 19 C18.49 14.31, 34.17 6.75, 57 0" stroke="#c92a2a" stroke-width="1" fill="none"></path></g><g stroke-linecap="round" transform="translate(1182.1931802961349 249.9543087666189) rotate(0 56.32368262651721 18.386723501592797)"><path d="M56.55 -1.53 L112.53 18.44 L55.5 35.73 L0.82 20.82" stroke="none" stroke-width="0" fill="#fd8888" fill-rule="evenodd"></path><path d="M57 0 C76.97 8.14, 99.05 14.58, 112.65 19 M57 0 C70.49 4.62, 82.61 9.75, 112.65 19 M112.65 19 C90.94 26.99, 73.52 31.22, 57 36.77 M112.65 19 C95.58 24.5, 78.16 30.11, 57 36.77 M57 36.77 C37.72 30.88, 19.57 25.67, 0 19 M57 36.77 C35.88 30.34, 13.73 22.76, 0 19 M0 19 C23.01 11.12, 45.02 2.17, 57 0 M0 19 C13.92 12.66, 29.65 8.99, 57 0" stroke="#c92a2a" stroke-width="1" fill="none"></path></g><g stroke-linecap="round" transform="translate(644.0504585625915 207.18011024495422) rotate(0 102.50006103515625 41.33331298828125)"><path d="M20.67 0 C68.69 4.96, 113.25 -2.14, 184.33 0 M20.67 0 C72.13 3.39, 123.79 1.78, 184.33 0 M184.33 0 C197.36 0.93, 201.14 2.94, 205 20.67 M184.33 0 C198.72 -0.84, 201.91 3.18, 205 20.67 M205 20.67 C202.15 36.56, 206.58 47.34, 205 62 M205 20.67 C206.46 32.49, 203.91 41.94, 205 62 M205 62 C203.55 79.54, 199.91 81.85, 184.33 82.67 M205 62 C203.39 73.1, 198.44 80.36, 184.33 82.67 M184.33 82.67 C124.57 83.2, 58.45 78, 20.67 82.67 M184.33 82.67 C117.78 83, 54.46 85.09, 20.67 82.67 M20.67 82.67 C9.59 85.33, 2.91 75.9, 0 62 M20.67 82.67 C6.35 82.46, -4.21 74.73, 0 62 M0 62 C-3.32 48.42, -2.55 35.09, 0 20.67 M0 62 C-1.84 48.42, -0.88 38.23, 0 20.67 M0 20.67 C-1.02 8.03, 4.58 -1.56, 20.67 0 M0 20.67 C-1.74 6.14, 11 1.99, 20.67 0" stroke="#2f9e44" stroke-width="2" fill="none"></path></g><g transform="translate(649.0504585625915 236.01342323323547) rotate(0 63.98993682861328 12.5)"><text x="0" y="0" font-family="Virgil, Segoe UI Emoji" font-size="20px" fill="#2f9e44" text-anchor="start" style="white-space: pre;" direction="ltr" dominant-baseline="text-before-edge"> user service</text></g><g stroke-linecap="round"><g transform="translate(794.4819357575886 228.23002742167864) rotate(0 18.92065220647055 20.548777364583827)"><path d="M-0.87 -0.31 C-0.71 5.84, 0.29 30.13, 0.59 37.01 C0.89 43.89, 0.6 39.8, 0.91 40.96 C1.22 42.13, 1.3 43.35, 2.45 43.99 C3.6 44.63, 4.77 44.82, 7.81 44.8 C10.84 44.79, 16.78 43.82, 20.66 43.9 C24.53 43.99, 28.29 45.55, 31.04 45.32 C33.8 45.09, 36.18 43.17, 37.17 42.54 C38.15 41.91, 36.67 42.37, 36.97 41.53 C37.27 40.68, 38.98 43.75, 38.96 37.47 C38.93 31.19, 36.87 10.22, 36.82 3.86 C36.77 -2.49, 38.84 0.44, 38.65 -0.65 C38.47 -1.75, 37.2 -2.43, 35.71 -2.73 C34.23 -3.04, 32.75 -2.24, 29.74 -2.5 C26.72 -2.76, 21.01 -4.32, 17.63 -4.29 C14.24 -4.26, 12.2 -2.61, 9.42 -2.3 C6.65 -1.99, 2.38 -2.81, 0.97 -2.43 C-0.44 -2.04, 1.24 -0.52, 0.95 0.03 C0.66 0.57, -0.68 0.88, -0.75 0.82 M0.87 -1.51 C0.94 4.83, -0.07 31.3, -0.12 38.58 C-0.16 45.86, 0.11 41.61, 0.62 42.18 C1.13 42.74, 1.48 41.44, 2.96 41.97 C4.44 42.5, 6.9 44.68, 9.51 45.34 C12.13 46, 14.97 46.08, 18.66 45.95 C22.35 45.82, 28.72 45.16, 31.65 44.55 C34.58 43.93, 35.12 42.95, 36.27 42.27 C37.42 41.59, 38.49 41.37, 38.56 40.49 C38.62 39.62, 36.96 43.5, 36.64 37.02 C36.32 30.53, 36.45 7.98, 36.65 1.59 C36.84 -4.81, 37.87 -1.03, 37.81 -1.35 C37.74 -1.66, 37.73 -0.13, 36.25 -0.3 C34.76 -0.48, 32 -1.63, 28.88 -2.42 C25.77 -3.21, 20.61 -4.76, 17.58 -5.05 C14.55 -5.34, 13.11 -4.64, 10.69 -4.15 C8.27 -3.66, 4.79 -2.88, 3.04 -2.12 C1.28 -1.36, 0.49 -0.19, 0.17 0.42 C-0.15 1.02, 0.94 1.35, 1.12 1.5" stroke="#1e1e1e" stroke-width="1" fill="none"></path></g></g><mask></mask><g stroke-linecap="round"><g transform="translate(794.7771049481194 256.2671399618239) rotate(0 18.96078188162346 1.9103554970648986)"><path d="M0.21 0.03 C0.51 0.31, 0.53 1, 1.41 1.59 C2.3 2.17, 4 3.14, 5.54 3.55 C7.07 3.96, 8.17 4.07, 10.62 4.07 C13.07 4.06, 16.94 3.53, 20.24 3.51 C23.55 3.5, 27.72 4.3, 30.47 3.97 C33.22 3.65, 35.55 2.2, 36.74 1.56 C37.92 0.92, 37.29 0.4, 37.57 0.11 M-0.34 -0.44 C-0.04 -0.05, 0.26 1.71, 1.2 2.24 C2.14 2.77, 3.75 2.32, 5.31 2.72 C6.86 3.12, 8.12 4.52, 10.52 4.64 C12.91 4.75, 16.26 3.58, 19.69 3.43 C23.12 3.29, 28.2 4.16, 31.1 3.75 C34 3.35, 35.84 1.59, 37.08 0.98 C38.33 0.37, 38.44 0.41, 38.58 0.11" stroke="#1e1e1e" stroke-width="1" fill="none"></path></g></g><mask></mask><g stroke-linecap="round"><g transform="translate(794.3074266860544 242.06432214548113) rotate(0 18.96078188162346 1.9103554970648986)"><path d="M0.42 -0.09 C0.58 0.26, 0.48 1.59, 1.23 2.14 C1.97 2.69, 3.21 3, 4.89 3.21 C6.56 3.43, 8.74 3.22, 11.26 3.44 C13.78 3.65, 16.76 4.5, 19.99 4.51 C23.22 4.53, 27.9 3.99, 30.61 3.53 C33.33 3.08, 34.97 2.42, 36.27 1.8 C37.57 1.18, 38.22 0.08, 38.42 -0.19 M-0.04 -0.61 C0.06 -0.41, -0.09 0.67, 0.91 1.42 C1.92 2.16, 4.22 3.5, 5.99 3.88 C7.75 4.26, 9.27 3.78, 11.49 3.68 C13.71 3.58, 16 3.38, 19.3 3.28 C22.61 3.18, 28.47 3.42, 31.31 3.09 C34.16 2.77, 35.23 1.92, 36.38 1.35 C37.53 0.77, 37.92 -0.08, 38.22 -0.35" stroke="#1e1e1e" stroke-width="1" fill="none"></path></g></g><mask></mask><g stroke-linecap="round" transform="translate(793.826119132566 224.78403461992616) rotate(0 18.81964323698412 3.806131258690442)"><path d="M14.78 0.04 C18.55 -0.17, 24.79 0.23, 28.41 0.58 C32.02 0.92, 35.04 1.3, 36.45 2.12 C37.86 2.94, 38.21 4.75, 36.89 5.5 C35.56 6.26, 31.95 6.26, 28.5 6.67 C25.05 7.09, 20.2 8.04, 16.18 8.02 C12.17 7.99, 7.15 7.25, 4.4 6.54 C1.65 5.83, -0.32 4.66, -0.32 3.75 C-0.32 2.85, 1.64 1.7, 4.42 1.11 C7.19 0.52, 14.03 0.43, 16.33 0.21 C18.64 0, 18.23 -0.29, 18.23 -0.19 M19.34 -0.22 C23.14 -0.46, 27.41 -0.44, 30.4 0.19 C33.4 0.82, 36.53 2.58, 37.29 3.55 C38.05 4.51, 36.9 5.37, 34.99 5.98 C33.07 6.58, 29.56 7.03, 25.8 7.17 C22.05 7.3, 16.25 7.11, 12.46 6.79 C8.66 6.47, 5.06 5.95, 3.04 5.24 C1.01 4.53, -0.3 3.19, 0.31 2.52 C0.92 1.86, 3.6 1.59, 6.7 1.24 C9.81 0.88, 16.96 0.52, 18.94 0.39 C20.93 0.26, 18.56 0.45, 18.6 0.45" stroke="#1e1e1e" stroke-width="1" fill="none"></path></g><g stroke-linecap="round" transform="translate(824.5340756444846 235.33746086999736) rotate(0 2.7581991181995136 2.99349038991528)"><path d="M3.25 0.07 C3.86 0.04, 4.3 0.14, 4.71 0.62 C5.11 1.1, 5.63 2.35, 5.69 2.98 C5.74 3.61, 5.37 3.86, 5.05 4.4 C4.72 4.93, 4.33 5.92, 3.74 6.17 C3.15 6.42, 2.11 6.21, 1.5 5.89 C0.89 5.57, 0.28 4.87, 0.07 4.24 C-0.15 3.6, 0.06 2.67, 0.22 2.08 C0.38 1.49, 0.51 1.07, 1.02 0.7 C1.53 0.32, 2.99 -0.11, 3.28 -0.17 C3.58 -0.23, 2.84 0.3, 2.79 0.34 M2.63 -0.46 C3.15 -0.37, 4.22 0.6, 4.7 1.18 C5.17 1.75, 5.36 2.39, 5.49 2.97 C5.61 3.54, 5.78 4.2, 5.46 4.62 C5.14 5.05, 4.15 5.39, 3.57 5.52 C2.98 5.64, 2.49 5.67, 1.93 5.38 C1.38 5.1, 0.55 4.3, 0.22 3.8 C-0.1 3.3, -0.16 2.9, 0 2.39 C0.17 1.88, 0.73 1.11, 1.19 0.76 C1.66 0.4, 2.47 0.38, 2.81 0.27 C3.14 0.16, 3.13 0.12, 3.23 0.11" stroke="#1e1e1e" stroke-width="1" fill="none"></path></g><g stroke-linecap="round" transform="translate(824.5340756444846 248.47887242376987) rotate(0 2.7581991181995136 2.99349038991528)"><path d="M2.77 -0.21 C3.31 -0.22, 4.25 0.59, 4.7 0.99 C5.15 1.39, 5.36 1.55, 5.47 2.18 C5.58 2.81, 5.69 4.14, 5.37 4.77 C5.06 5.39, 4.21 5.79, 3.59 5.96 C2.96 6.12, 2.14 6.01, 1.63 5.74 C1.12 5.47, 0.81 4.84, 0.53 4.32 C0.24 3.8, -0.19 3.26, -0.07 2.63 C0.05 2, 0.83 0.93, 1.26 0.54 C1.7 0.15, 2.27 0.38, 2.53 0.27 C2.79 0.15, 2.74 -0.18, 2.81 -0.15 M2.56 0.25 C3.19 0.28, 3.84 0.44, 4.4 0.77 C4.96 1.09, 5.77 1.64, 5.93 2.18 C6.09 2.71, 5.66 3.43, 5.38 3.97 C5.09 4.52, 4.81 5.22, 4.23 5.46 C3.66 5.71, 2.59 5.56, 1.94 5.46 C1.29 5.36, 0.66 5.29, 0.33 4.86 C0 4.43, -0.07 3.51, -0.02 2.88 C0.03 2.24, 0.15 1.52, 0.62 1.05 C1.09 0.57, 2.4 0.22, 2.79 0.04 C3.19 -0.14, 2.96 -0.06, 3 -0.05" stroke="#1e1e1e" stroke-width="1" fill="none"></path></g><g stroke-linecap="round" transform="translate(824.5340756444846 262.7618406738093) rotate(0 2.7581991181995136 2.99349038991528)"><path d="M3.04 0.31 C3.59 0.28, 4.16 0.07, 4.6 0.5 C5.04 0.93, 5.64 2.17, 5.7 2.87 C5.76 3.58, 5.34 4.26, 4.96 4.74 C4.58 5.22, 3.91 5.62, 3.4 5.76 C2.89 5.9, 2.4 5.78, 1.87 5.57 C1.34 5.37, 0.47 5.09, 0.22 4.53 C-0.04 3.96, 0.26 2.8, 0.36 2.2 C0.46 1.59, 0.39 1.31, 0.82 0.91 C1.25 0.51, 2.54 -0.09, 2.93 -0.2 C3.33 -0.32, 3.24 0.18, 3.21 0.22 M2.29 0.19 C2.93 -0.01, 4.11 0.03, 4.65 0.27 C5.19 0.51, 5.35 1.04, 5.53 1.62 C5.71 2.2, 5.98 3.17, 5.74 3.77 C5.51 4.36, 4.7 4.81, 4.1 5.22 C3.5 5.62, 2.72 6.19, 2.13 6.18 C1.55 6.17, 0.98 5.64, 0.58 5.15 C0.18 4.65, -0.31 3.88, -0.27 3.2 C-0.22 2.52, 0.34 1.62, 0.84 1.07 C1.33 0.53, 2.38 0.12, 2.68 -0.08 C2.99 -0.27, 2.77 -0.13, 2.69 -0.11" stroke="#1e1e1e" stroke-width="1" fill="none"></path></g><g stroke-linecap="round" transform="translate(649.8837105157165 428.18029335042297) rotate(0 108.666748046875 41.33331298828125)"><path d="M20.67 0 C64.27 3.63, 111.47 -3.56, 196.67 0 M20.67 0 C81.28 -0.75, 145.25 1.09, 196.67 0 M196.67 0 C206.84 -1.03, 216.98 4.06, 217.33 20.67 M196.67 0 C207.29 1.69, 220.76 8.63, 217.33 20.67 M217.33 20.67 C215.8 37.16, 220.1 51.44, 217.33 62 M217.33 20.67 C216.18 32.08, 216.95 39.78, 217.33 62 M217.33 62 C214.29 75.28, 213.78 84.6, 196.67 82.67 M217.33 62 C217.62 76.65, 210.45 78.15, 196.67 82.67 M196.67 82.67 C138.18 86.9, 87.04 85.02, 20.67 82.67 M196.67 82.67 C125.78 79.61, 59.62 83.26, 20.67 82.67 M20.67 82.67 C3.01 81.85, 2.44 78.96, 0 62 M20.67 82.67 C4.18 85.78, 3.01 73.77, 0 62 M0 62 C1.75 48.04, -4.34 42.42, 0 20.67 M0 62 C1.23 49.82, -0.83 36.55, 0 20.67 M0 20.67 C1.07 10.42, 9.09 1.4, 20.67 0 M0 20.67 C-1.43 3.1, 4.8 -4.13, 20.67 0" stroke="#1971c2" stroke-width="2" fill="none"></path></g><g transform="translate(654.8837105157165 457.0136063387042) rotate(0 71.43993377685547 12.5)"><text x="0" y="0" font-family="Virgil, Segoe UI Emoji" font-size="20px" fill="#1971c2" text-anchor="start" style="white-space: pre;" direction="ltr" dominant-baseline="text-before-edge"> tweet service</text></g><g stroke-linecap="round"><g transform="translate(812.3151877107136 448.563615068163) rotate(0 18.92065220647055 20.548777364583856)"><path d="M-0.96 0.66 C-1.31 6.74, -0.91 30.32, -0.93 37.01 C-0.95 43.71, -1.54 39.69, -1.09 40.82 C-0.64 41.94, 0.32 43.17, 1.78 43.74 C3.23 44.3, 4.6 44.14, 7.64 44.21 C10.69 44.27, 16.3 44.07, 20.07 44.15 C23.84 44.22, 27.33 44.89, 30.29 44.67 C33.25 44.46, 36.47 43.38, 37.82 42.86 C39.18 42.33, 38.31 42.54, 38.43 41.54 C38.55 40.54, 38.56 43.16, 38.54 36.87 C38.52 30.58, 38.39 10.06, 38.3 3.79 C38.2 -2.48, 38.63 0.25, 37.95 -0.73 C37.28 -1.72, 35.63 -1.85, 34.25 -2.12 C32.87 -2.4, 32.31 -1.93, 29.69 -2.39 C27.06 -2.85, 22.08 -4.7, 18.48 -4.89 C14.88 -5.07, 10.71 -4.17, 8.07 -3.52 C5.43 -2.87, 3.96 -1.62, 2.62 -1 C1.29 -0.38, 0.49 0.23, 0.05 0.21 C-0.38 0.18, -0.02 -1.01, 0 -1.18 M0.74 -0.04 C0.64 6.2, 1.15 31.58, 1.23 38.58 C1.31 45.58, 1.11 41.45, 1.23 41.95 C1.35 42.45, 0.6 41.17, 1.94 41.58 C3.27 42, 6.02 43.65, 9.27 44.44 C12.51 45.22, 17.89 46.47, 21.43 46.32 C24.97 46.17, 27.86 44.15, 30.5 43.56 C33.14 42.96, 36.16 43.26, 37.27 42.75 C38.37 42.25, 36.71 41.62, 37.11 40.51 C37.51 39.41, 39.36 42.61, 39.66 36.11 C39.96 29.6, 39.38 7.74, 38.89 1.47 C38.41 -4.79, 37.56 -0.71, 36.74 -1.47 C35.93 -2.22, 35.33 -2.9, 34.01 -3.03 C32.69 -3.16, 31.33 -2.38, 28.81 -2.26 C26.29 -2.14, 22.24 -2.29, 18.88 -2.3 C15.52 -2.32, 11.45 -2.74, 8.62 -2.35 C5.79 -1.95, 3.53 -0.46, 1.9 0.05 C0.26 0.56, -0.65 0.96, -1.19 0.69 C-1.74 0.43, -1.71 -1.53, -1.38 -1.54" stroke="#1e1e1e" stroke-width="1" fill="none"></path></g></g><mask></mask><g stroke-linecap="round"><g transform="translate(812.6103569012441 476.60072760830826) rotate(0 18.96078188162346 1.910355497064927)"><path d="M-0.48 0.03 C-0.33 0.23, -0.45 0.95, 0.5 1.52 C1.45 2.09, 3.55 3.05, 5.23 3.43 C6.9 3.81, 8.09 3.76, 10.55 3.79 C13 3.83, 16.71 3.64, 19.97 3.62 C23.24 3.6, 27.28 3.99, 30.13 3.67 C32.97 3.35, 35.68 2.3, 37.04 1.71 C38.39 1.11, 38.03 0.48, 38.23 0.12 M0.27 -0.43 C0.63 -0.18, 0.71 1.64, 1.47 2.14 C2.24 2.63, 3.35 2.2, 4.84 2.55 C6.33 2.89, 8 4.05, 10.4 4.22 C12.81 4.4, 15.92 3.76, 19.28 3.6 C22.64 3.45, 27.81 3.7, 30.58 3.3 C33.34 2.9, 34.65 1.73, 35.87 1.2 C37.1 0.67, 37.63 0.25, 37.93 0.12" stroke="#1e1e1e" stroke-width="1" fill="none"></path></g></g><mask></mask><g stroke-linecap="round"><g transform="translate(812.1406786391792 462.3979097919655) rotate(0 18.96078188162346 1.910355497064927)"><path d="M-0.5 -0.16 C-0.27 0.17, 0.03 1.51, 0.92 2.03 C1.81 2.54, 3.13 2.69, 4.81 2.94 C6.49 3.2, 8.52 3.33, 10.99 3.55 C13.47 3.76, 16.33 4.19, 19.65 4.22 C22.97 4.24, 28.03 4.08, 30.91 3.68 C33.8 3.28, 35.72 2.5, 36.94 1.81 C38.16 1.12, 38.03 -0.19, 38.23 -0.47 M0.24 -0.71 C0.44 -0.54, -0.49 0.54, 0.45 1.24 C1.39 1.94, 4.1 3.03, 5.87 3.47 C7.65 3.9, 8.65 3.68, 11.08 3.85 C13.51 4.02, 17.28 4.59, 20.45 4.5 C23.62 4.41, 27.28 3.84, 30.1 3.31 C32.93 2.79, 36.09 2.04, 37.39 1.36 C38.69 0.68, 37.9 -0.48, 37.92 -0.76" stroke="#1e1e1e" stroke-width="1" fill="none"></path></g></g><mask></mask><g stroke-linecap="round" transform="translate(811.6593710856907 445.11762226641054) rotate(0 18.81964323698412 3.806131258690442)"><path d="M14.26 -0.25 C18 -0.4, 23.9 0.31, 27.58 0.79 C31.26 1.27, 34.76 1.87, 36.35 2.61 C37.93 3.34, 38.35 4.44, 37.09 5.21 C35.83 5.98, 32.18 6.8, 28.79 7.22 C25.41 7.64, 20.78 7.94, 16.78 7.74 C12.78 7.54, 7.59 6.67, 4.79 6.03 C1.99 5.38, 0.08 4.61, -0.04 3.86 C-0.16 3.12, 1.54 2.27, 4.07 1.57 C6.6 0.87, 13.06 -0.15, 15.13 -0.32 C17.19 -0.5, 16.29 0.39, 16.46 0.52 M19.83 -0.51 C23.78 -0.49, 29.33 -0.23, 32.3 0.46 C35.27 1.14, 37.29 2.57, 37.66 3.59 C38.02 4.61, 36.71 5.97, 34.47 6.57 C32.23 7.17, 28.12 7.19, 24.21 7.2 C20.29 7.2, 14.57 6.77, 10.99 6.6 C7.42 6.43, 4.62 6.83, 2.75 6.2 C0.87 5.57, -1.12 3.62, -0.27 2.81 C0.59 2.01, 4.62 1.76, 7.88 1.38 C11.13 0.99, 17.22 0.78, 19.27 0.51 C21.32 0.24, 20.19 -0.28, 20.19 -0.25" stroke="#1e1e1e" stroke-width="1" fill="none"></path></g><g stroke-linecap="round" transform="translate(842.3673275976096 455.67104851648173) rotate(0 2.7581991181995136 2.99349038991528)"><path d="M2.84 0.25 C3.46 0.27, 4.16 0.47, 4.63 0.86 C5.1 1.26, 5.59 2, 5.66 2.62 C5.72 3.24, 5.29 4.05, 5 4.6 C4.71 5.14, 4.48 5.74, 3.93 5.9 C3.38 6.06, 2.29 5.82, 1.69 5.57 C1.09 5.33, 0.59 4.94, 0.35 4.44 C0.1 3.93, 0.15 3.22, 0.21 2.56 C0.26 1.89, 0.26 0.85, 0.68 0.47 C1.1 0.1, 2.34 0.34, 2.71 0.28 C3.09 0.21, 2.94 0.08, 2.95 0.08 M2.78 -0.33 C3.34 -0.38, 3.87 0.13, 4.28 0.6 C4.68 1.06, 5.08 1.92, 5.24 2.47 C5.39 3.02, 5.45 3.44, 5.2 3.88 C4.95 4.33, 4.16 4.71, 3.74 5.12 C3.32 5.54, 3.28 6.43, 2.68 6.37 C2.09 6.31, 0.54 5.29, 0.14 4.79 C-0.26 4.29, 0.27 3.93, 0.31 3.36 C0.34 2.79, -0.02 1.97, 0.37 1.38 C0.76 0.79, 2.35 0, 2.64 -0.18 C2.92 -0.36, 2.15 0.18, 2.06 0.31" stroke="#1e1e1e" stroke-width="1" fill="none"></path></g><g stroke-linecap="round" transform="translate(842.3673275976096 468.81246007025425) rotate(0 2.7581991181995136 2.99349038991528)"><path d="M2.57 0.21 C3.14 0.09, 4.02 0.34, 4.47 0.68 C4.91 1.03, 5.07 1.69, 5.24 2.29 C5.4 2.89, 5.71 3.77, 5.48 4.29 C5.25 4.81, 4.4 5.17, 3.83 5.42 C3.26 5.68, 2.59 5.92, 2.07 5.81 C1.55 5.71, 1.11 5.36, 0.72 4.81 C0.32 4.27, -0.27 3.16, -0.27 2.56 C-0.27 1.96, 0.23 1.63, 0.71 1.21 C1.2 0.79, 2.33 0.23, 2.64 0.04 C2.95 -0.15, 2.66 0.02, 2.59 0.07 M2.56 0.2 C3.01 0.23, 3.7 0.67, 4.16 0.97 C4.61 1.26, 5.14 1.52, 5.27 1.98 C5.39 2.44, 5.06 3.02, 4.92 3.71 C4.78 4.4, 4.97 5.76, 4.43 6.11 C3.88 6.46, 2.23 5.96, 1.63 5.8 C1.03 5.65, 1.17 5.62, 0.85 5.17 C0.53 4.73, -0.33 3.89, -0.29 3.15 C-0.25 2.41, 0.67 1.2, 1.08 0.72 C1.5 0.23, 2 0.29, 2.19 0.23 C2.37 0.17, 2.21 0.41, 2.18 0.34" stroke="#1e1e1e" stroke-width="1" fill="none"></path></g><g stroke-linecap="round" transform="translate(842.3673275976096 483.09542832029365) rotate(0 2.7581991181995136 2.99349038991528)"><path d="M3.29 0.21 C3.8 0.24, 4.21 0.65, 4.61 1.1 C5.02 1.56, 5.67 2.37, 5.7 2.95 C5.73 3.53, 5.19 4.07, 4.79 4.55 C4.4 5.03, 3.85 5.63, 3.33 5.82 C2.81 6.01, 2.24 6.02, 1.67 5.7 C1.11 5.38, 0.21 4.45, -0.06 3.9 C-0.32 3.35, -0.17 2.96, 0.08 2.39 C0.33 1.82, 0.9 0.89, 1.42 0.5 C1.94 0.11, 2.97 0.09, 3.21 0.03 C3.45 -0.03, 2.91 0.05, 2.86 0.15 M2.3 0.49 C2.81 0.32, 3.67 0.13, 4.12 0.32 C4.58 0.51, 4.75 0.92, 5.02 1.64 C5.29 2.35, 5.98 3.94, 5.73 4.59 C5.48 5.25, 4.08 5.27, 3.53 5.56 C2.98 5.84, 2.99 6.38, 2.45 6.31 C1.9 6.24, 0.62 5.75, 0.26 5.14 C-0.09 4.52, 0.29 3.28, 0.33 2.62 C0.37 1.96, 0.18 1.55, 0.48 1.16 C0.78 0.77, 1.9 0.55, 2.15 0.29 C2.4 0.02, 1.89 -0.45, 1.96 -0.42" stroke="#1e1e1e" stroke-width="1" fill="none"></path></g><g stroke-linecap="round" transform="translate(651.5503975274353 641.8467667390948) rotate(0 87.66668701171875 41.33331298828125)"><path d="M20.67 0 C63.58 5.41, 111.23 0.88, 154.67 0 M20.67 0 C60.64 -0.76, 105.11 2.72, 154.67 0 M154.67 0 C165.86 -0.27, 173.83 5.94, 175.33 20.67 M154.67 0 C166.01 -1.93, 178.46 6.69, 175.33 20.67 M175.33 20.67 C176.74 37.57, 173.68 55.64, 175.33 62 M175.33 20.67 C174.56 34.79, 176.81 52.27, 175.33 62 M175.33 62 C177.86 73.55, 170.33 82.78, 154.67 82.67 M175.33 62 C174.01 75.29, 172.04 79.08, 154.67 82.67 M154.67 82.67 C117.29 79.91, 89.72 82.12, 20.67 82.67 M154.67 82.67 C104.65 85.33, 56.06 83.47, 20.67 82.67 M20.67 82.67 C7.68 86.39, 1.61 73.83, 0 62 M20.67 82.67 C4.05 82.08, 3.21 72.55, 0 62 M0 62 C-4.21 42.72, -3.72 27.87, 0 20.67 M0 62 C1.24 45.24, 1.1 28.17, 0 20.67 M0 20.67 C1.52 5.88, 7.94 -2.79, 20.67 0 M0 20.67 C-3.05 10.75, 10.59 1.14, 20.67 0" stroke="#f08c00" stroke-width="2" fill="none"></path></g><g transform="translate(666.5071617486267 670.6800797273761) rotate(0 72.70992279052734 12.5)"><text x="72.70992279052734" y="0" font-family="Virgil, Segoe UI Emoji" font-size="20px" fill="#f08c00" text-anchor="middle" style="white-space: pre;" direction="ltr" dominant-baseline="text-before-edge">timeline service</text></g><g stroke-linecap="round"><g transform="translate(758.0504585625915 195.84675148030578) rotate(0 205.3714048592176 13.83091711919343)"><path d="M-1.21 1.83 C9.22 -4.94, -5.22 -53.73, 63.31 -42.11 C131.84 -30.5, 351.75 52.72, 409.96 71.52" stroke="#2f9e44" stroke-width="2.5" fill="none" stroke-dasharray="1.5 8"></path></g><g transform="translate(758.0504585625915 195.84675148030578) rotate(0 205.3714048592176 13.83091711919343)"><path d="M382.57 72.34 C389.57 70.91, 402.14 74.48, 411.39 71.74" stroke="#2f9e44" stroke-width="2.5" fill="none" stroke-dasharray="1.5 6"></path></g><g transform="translate(758.0504585625915 195.84675148030578) rotate(0 205.3714048592176 13.83091711919343)"><path d="M389.34 52.97 C393.93 57.78, 404.3 67.66, 411.39 71.74" stroke="#2f9e44" stroke-width="2.5" fill="none" stroke-dasharray="1.5 6"></path></g></g><mask></mask><g stroke-linecap="round"><g transform="translate(773.050580632904 412.51342323323547) rotate(0 197.5659377634479 -54.817340806581626)"><path d="M-1.99 2.58 C6.92 -10.67, -10.26 -61.07, 55.62 -79.61 C121.51 -98.15, 336.5 -103.42, 393.32 -108.66" stroke="#1971c2" stroke-width="2.5" fill="none" stroke-dasharray="1.5 8"></path></g><g transform="translate(773.050580632904 412.51342323323547) rotate(0 197.5659377634479 -54.817340806581626)"><path d="M369.47 -99.66 C373.85 -103.43, 387.91 -103.28, 391.3 -110.47" stroke="#1971c2" stroke-width="2.5" fill="none" stroke-dasharray="1.5 6"></path></g><g transform="translate(773.050580632904 412.51342323323547) rotate(0 197.5659377634479 -54.817340806581626)"><path d="M368.25 -120.15 C373.08 -116.18, 387.6 -108.33, 391.3 -110.47" stroke="#1971c2" stroke-width="2.5" fill="none" stroke-dasharray="1.5 6"></path></g></g><mask></mask><g transform="translate(829.4072395684509 110.51340797444641) rotate(286.88676253486176 26.309967041015625 12.5)"><text x="26.309967041015625" y="0" font-family="Virgil, Segoe UI Emoji" font-size="20px" fill="#1e1e1e" text-anchor="middle" style="white-space: pre;" direction="ltr" dominant-baseline="text-before-edge">users</text></g><g transform="translate(892.2271324517517 117.34675148030578) rotate(283.11639696527334 42.489952087402344 12.5)"><text x="42.489952087402344" y="0" font-family="Virgil, Segoe UI Emoji" font-size="20px" fill="#1e1e1e" text-anchor="middle" style="white-space: pre;" direction="ltr" dominant-baseline="text-before-edge">followers</text></g><g transform="translate(965.5571266534118 145.3467819978839) rotate(286.6388257112528 39.15995788574219 12.5)"><text x="39.15995788574219" y="0" font-family="Virgil, Segoe UI Emoji" font-size="20px" fill="#1e1e1e" text-anchor="middle" style="white-space: pre;" direction="ltr" dominant-baseline="text-before-edge">following</text></g><g transform="translate(933.9569984795835 321.34676673909485) rotate(352.5397613120326 33.75996398925781 12.5)"><text x="33.75996398925781" y="0" font-family="Virgil, Segoe UI Emoji" font-size="20px" fill="#1e1e1e" text-anchor="middle" style="white-space: pre;" direction="ltr" dominant-baseline="text-before-edge">tweets</text></g><g stroke-linecap="round"><g transform="translate(1093.9094946984394 864.8837416720385) rotate(90.02797070373911 -21.17698573384041 -52.646918869118)"><path d="M0.15 0.96 C0.07 -15.09, -0.9 -77.72, -0.79 -95.44 C-0.68 -113.16, 1.01 -102.9, 0.79 -105.35 C0.58 -107.79, -0.31 -108.85, -2.07 -110.13 C-3.83 -111.4, -6.16 -112.33, -9.76 -113 C-13.36 -113.67, -19.68 -114.13, -23.67 -114.15 C-27.65 -114.18, -30.85 -114.02, -33.65 -113.14 C-36.46 -112.25, -38.92 -110.27, -40.52 -108.83 C-42.12 -107.39, -42.91 -106.56, -43.26 -104.52 C-43.61 -102.48, -42.97 -112.73, -42.63 -96.57 C-42.28 -80.41, -41.34 -23.75, -41.21 -7.57 C-41.09 8.62, -42.03 -1.46, -41.87 0.53 C-41.7 2.51, -41.66 2.93, -40.24 4.32 C-38.82 5.72, -36.64 8.06, -33.34 8.89 C-30.05 9.72, -24.18 9.19, -20.47 9.29 C-16.75 9.38, -14.14 10.42, -11.05 9.46 C-7.96 8.5, -3.98 5.26, -1.93 3.52 C0.11 1.78, 0.87 -0.47, 1.22 -1 C1.57 -1.52, 0.28 0.33, 0.15 0.37 M-1.23 0.42 C-0.89 -15.57, 1.3 -76.9, 1.58 -94.3 C1.86 -111.7, 1.01 -101.52, 0.45 -103.97 C-0.11 -106.43, 0.18 -107.08, -1.77 -109.04 C-3.71 -110.99, -7.72 -114.78, -11.23 -115.71 C-14.74 -116.64, -18.68 -114.82, -22.82 -114.6 C-26.96 -114.38, -33.01 -115.27, -36.06 -114.39 C-39.11 -113.5, -40.16 -110.7, -41.12 -109.27 C-42.07 -107.85, -41.66 -107.81, -41.8 -105.82 C-41.95 -103.82, -41.62 -113.89, -41.99 -97.32 C-42.35 -80.75, -43.8 -22.63, -44 -6.38 C-44.2 9.87, -43.77 -2.02, -43.18 0.18 C-42.6 2.37, -42.04 5.27, -40.49 6.79 C-38.95 8.31, -37.31 9.05, -33.92 9.31 C-30.52 9.57, -24 8.67, -20.11 8.36 C-16.21 8.06, -13.35 8.22, -10.54 7.49 C-7.73 6.76, -5.1 5.44, -3.25 3.99 C-1.4 2.54, 0.21 -0.66, 0.56 -1.19 C0.91 -1.71, -1.26 0.5, -1.15 0.82" stroke="#1e1e1e" stroke-width="1" fill="none"></path></g></g><mask></mask><g stroke-linecap="round"><g transform="translate(1113.2404289142014 816.289780328641) rotate(90.02797070373911 -20.55155209396935 -4.672494713553988)"><path d="M-0.3 -0.35 C-0.43 -1.1, 0.18 -2.85, -0.72 -4.05 C-1.62 -5.25, -3.83 -6.7, -5.7 -7.55 C-7.58 -8.4, -9.21 -8.85, -11.96 -9.14 C-14.71 -9.44, -18.77 -9.42, -22.2 -9.3 C-25.63 -9.18, -29.67 -9.33, -32.53 -8.41 C-35.38 -7.48, -37.82 -5.25, -39.33 -3.75 C-40.83 -2.26, -41.25 -0.11, -41.57 0.55 M0.55 0.66 C0.37 -0.03, 0.14 -2.06, -0.96 -3.33 C-2.06 -4.6, -4.21 -5.84, -6.02 -6.96 C-7.84 -8.08, -9.28 -9.46, -11.85 -10.06 C-14.42 -10.65, -17.89 -10.73, -21.46 -10.52 C-25.03 -10.32, -30.1 -9.86, -33.27 -8.84 C-36.45 -7.82, -39.29 -5.96, -40.51 -4.41 C-41.73 -2.87, -40.63 -0.49, -40.61 0.43" stroke="#1e1e1e" stroke-width="1" fill="none"></path></g></g><mask></mask><g stroke-linecap="round"><g transform="translate(1077.209237339117 816.4591222387328) rotate(90.02797070373911 -20.492796705455476 -3.745471929781843)"><path d="M0.37 0.05 C0.24 -0.44, -0.01 -2.36, -1.03 -3.3 C-2.05 -4.23, -3.83 -4.91, -5.73 -5.56 C-7.63 -6.21, -9.87 -6.83, -12.43 -7.2 C-14.99 -7.57, -17.74 -7.84, -21.1 -7.79 C-24.47 -7.74, -29.44 -7.72, -32.6 -6.9 C-35.75 -6.08, -38.63 -4.03, -40.05 -2.86 C-41.47 -1.69, -41.02 -0.45, -41.1 0.12 M-0.11 -0.4 C-0.27 -0.77, -0.44 -1.61, -1.43 -2.6 C-2.43 -3.6, -4.22 -5.46, -6.08 -6.38 C-7.94 -7.3, -10 -7.9, -12.57 -8.1 C-15.14 -8.3, -18.02 -7.68, -21.5 -7.57 C-24.97 -7.45, -30.35 -8.1, -33.43 -7.42 C-36.51 -6.73, -38.63 -4.64, -39.99 -3.43 C-41.36 -2.23, -41.46 -0.74, -41.62 -0.17" stroke="#1e1e1e" stroke-width="1" fill="none"></path></g></g><mask></mask><g stroke-linecap="round" transform="translate(997.5196076333261 802.3494863008003) rotate(90.02797070373911 20.778737423690927 9.23777955177934)"><path d="M21.28 0.49 C25.45 0.5, 30.92 1.39, 34.23 2.51 C37.55 3.63, 40.4 5.35, 41.16 7.22 C41.93 9.1, 41.08 11.91, 38.83 13.76 C36.57 15.62, 31.79 17.66, 27.62 18.36 C23.45 19.07, 17.93 18.81, 13.8 17.99 C9.67 17.17, 5.13 15.18, 2.83 13.46 C0.54 11.75, -0.82 9.61, 0.03 7.73 C0.88 5.84, 4.38 3.53, 7.93 2.18 C11.49 0.82, 18.87 -0.07, 21.35 -0.41 C23.82 -0.74, 22.79 -0.14, 22.78 0.17 M16.54 -0.25 C20.69 -0.88, 26.94 -0.37, 30.95 0.59 C34.95 1.56, 38.87 3.66, 40.57 5.54 C42.28 7.42, 42.56 9.95, 41.19 11.87 C39.81 13.79, 36.23 15.98, 32.33 17.04 C28.43 18.11, 22.25 18.4, 17.81 18.25 C13.38 18.11, 8.73 17.49, 5.73 16.16 C2.72 14.83, -0.01 12.3, -0.24 10.27 C-0.48 8.25, 1.58 5.72, 4.32 4 C7.06 2.27, 14.2 0.5, 16.22 -0.07 C18.24 -0.65, 16.33 0.33, 16.46 0.55" stroke="#1e1e1e" stroke-width="1" fill="none"></path></g><g stroke-linecap="round"><g transform="translate(1234.5491614889047 328.34274998904493) rotate(0 -52.74975123569914 242.53756805296024)"><path d="M1.52 2.49 C-0.09 75.24, 10.27 353.68, -7.4 433.9 C-25.07 514.13, -87.96 475.45, -104.48 483.84" stroke="#c2255c" stroke-width="1.5" fill="none" stroke-dasharray="1.5 7"></path></g><g transform="translate(1234.5491614889047 328.34274998904493) rotate(0 -52.74975123569914 242.53756805296024)"><path d="M-72.46 477.09 C-83.82 479.73, -99.68 480.42, -105.7 483.66" stroke="#c2255c" stroke-width="1.5" fill="none" stroke-dasharray="1.5 5"></path></g><g transform="translate(1234.5491614889047 328.34274998904493) rotate(0 -52.74975123569914 242.53756805296024)"><path d="M-73.02 497.6 C-83.79 492.42, -99.43 485.28, -105.7 483.66" stroke="#c2255c" stroke-width="1.5" fill="none" stroke-dasharray="1.5 5"></path></g></g><mask></mask><g transform="translate(1246.123965054503 380.832549713874) rotate(312.2074260504187 22.679977416992188 12.5)"><text x="22.679977416992188" y="0" font-family="Virgil, Segoe UI Emoji" font-size="20px" fill="#1e1e1e" text-anchor="middle" style="white-space: pre;" direction="ltr" dominant-baseline="text-before-edge">twee</text></g><g stroke-linecap="round" transform="translate(1227.6999628205992 404.01963710797276) rotate(0 7.604232472211152 8.220871194273343)"><path d="M9.86 0.49 C11.25 1.18, 13 2.8, 13.97 4.34 C14.94 5.87, 16.13 7.92, 15.66 9.69 C15.2 11.46, 12.67 13.92, 11.19 14.93 C9.7 15.95, 8.05 15.81, 6.74 15.8 C5.43 15.79, 4.59 16.1, 3.33 14.89 C2.08 13.68, -0.28 10.55, -0.8 8.52 C-1.31 6.5, -0.72 4.04, 0.27 2.75 C1.25 1.45, 3.28 1.13, 5.12 0.73 C6.96 0.33, 10.11 0.23, 11.31 0.34 C12.51 0.45, 12.32 1.08, 12.34 1.41" stroke="none" stroke-width="0" fill="#ffec99"></path><path d="M5.94 1 C7.4 0.25, 10.11 -0.56, 11.66 0.02 C13.21 0.59, 14.82 2.8, 15.23 4.44 C15.64 6.07, 14.54 8.17, 14.13 9.82 C13.71 11.46, 13.93 13.04, 12.74 14.29 C11.55 15.53, 8.75 17.33, 6.99 17.29 C5.24 17.26, 3.29 15.37, 2.19 14.07 C1.09 12.78, 0.44 11.34, 0.39 9.5 C0.34 7.66, 0.92 4.47, 1.89 3.04 C2.86 1.61, 5.37 1.29, 6.19 0.92 C7 0.55, 6.71 0.99, 6.8 0.82" stroke="#f08c00" stroke-width="1.5" fill="none" stroke-dasharray="1.5 7"></path></g><g transform="translate(1247.0294667133783 500.3020998916845) rotate(312.2074260504187 22.679977416992188 12.5)"><text x="22.679977416992188" y="0" font-family="Virgil, Segoe UI Emoji" font-size="20px" fill="#1e1e1e" text-anchor="middle" style="white-space: pre;" direction="ltr" dominant-baseline="text-before-edge">twee</text></g><g stroke-linecap="round" transform="translate(1228.6054644794747 523.4891872857834) rotate(0 7.604232472211152 8.220871194273343)"><path d="M8.23 -0.88 C9.85 -0.75, 12.3 1.95, 13.51 3.41 C14.72 4.87, 15.49 6.13, 15.49 7.88 C15.48 9.63, 14.43 12.43, 13.49 13.91 C12.55 15.4, 11.6 16.56, 9.85 16.81 C8.1 17.06, 4.64 16.34, 2.99 15.42 C1.35 14.51, 0.34 13.05, -0.01 11.31 C-0.36 9.58, 0.31 6.63, 0.9 5.02 C1.49 3.41, 1.84 2.33, 3.55 1.63 C5.27 0.94, 9.57 0.75, 11.19 0.83 C12.82 0.9, 13.45 1.81, 13.32 2.08" stroke="none" stroke-width="0" fill="#ffec99"></path><path d="M6.57 0.18 C8.37 -0.25, 10.94 0.19, 12.33 1.12 C13.72 2.05, 14.68 4.08, 14.93 5.75 C15.17 7.42, 14.56 9.42, 13.82 11.14 C13.08 12.86, 11.64 15.29, 10.47 16.06 C9.3 16.83, 8.39 16.04, 6.82 15.75 C5.25 15.47, 2.02 15.54, 1.04 14.34 C0.07 13.14, 0.88 10.51, 0.95 8.56 C1.03 6.6, 0.4 3.96, 1.49 2.6 C2.59 1.24, 6.5 0.93, 7.52 0.4 C8.55 -0.12, 7.64 -0.65, 7.62 -0.55" stroke="#f08c00" stroke-width="1.5" fill="none" stroke-dasharray="1.5 7"></path></g><g transform="translate(1246.207432278817 644.5779490562318) rotate(312.2074260504187 22.679977416992188 12.5)"><text x="22.679977416992188" y="0" font-family="Virgil, Segoe UI Emoji" font-size="20px" fill="#1e1e1e" text-anchor="middle" style="white-space: pre;" direction="ltr" dominant-baseline="text-before-edge">twee</text></g><g stroke-linecap="round" transform="translate(1227.7834300449133 667.7650364503304) rotate(0 7.604232472211152 8.220871194273343)"><path d="M8.07 1.01 C9.55 1.16, 12.16 1.53, 13.34 2.7 C14.51 3.86, 14.96 6.02, 15.12 7.99 C15.27 9.95, 15.27 12.95, 14.27 14.5 C13.27 16.06, 10.74 17.3, 9.14 17.32 C7.54 17.33, 6.05 15.7, 4.67 14.6 C3.3 13.5, 1.46 12.4, 0.9 10.71 C0.35 9.03, 0.87 6.15, 1.35 4.49 C1.83 2.84, 2.22 1.54, 3.78 0.79 C5.35 0.05, 9.67 0.11, 10.74 0.03 C11.81 -0.04, 10.38 0.07, 10.21 0.34" stroke="none" stroke-width="0" fill="#ffec99"></path><path d="M10.99 -0.06 C12.67 0.37, 14.12 1.52, 14.95 3.29 C15.78 5.05, 16.39 8.64, 15.95 10.54 C15.51 12.44, 13.66 13.81, 12.33 14.69 C11.01 15.57, 9.66 15.99, 8 15.84 C6.34 15.69, 3.74 14.76, 2.36 13.78 C0.99 12.8, 0.01 11.5, -0.24 9.96 C-0.48 8.41, 0.07 6.04, 0.91 4.51 C1.74 2.97, 3.21 1.18, 4.79 0.73 C6.36 0.29, 9.04 1.81, 10.37 1.86 C11.7 1.9, 12.58 1.1, 12.77 1" stroke="#f08c00" stroke-width="1.5" fill="none" stroke-dasharray="1.5 7"></path></g><g transform="translate(1237.5755438672634 741.172865716544) rotate(312.2074260504187 22.679977416992188 12.5)"><text x="22.679977416992188" y="0" font-family="Virgil, Segoe UI Emoji" font-size="20px" fill="#1e1e1e" text-anchor="middle" style="white-space: pre;" direction="ltr" dominant-baseline="text-before-edge">twee</text></g><g stroke-linecap="round" transform="translate(1219.1515416333593 764.3599531106427) rotate(0 7.604232472211152 8.220871194273343)"><path d="M7.83 0.56 C9.48 0.48, 11.4 2.02, 12.54 2.96 C13.69 3.9, 14.52 4.6, 14.7 6.19 C14.88 7.79, 14.47 10.91, 13.61 12.51 C12.74 14.11, 10.97 15.32, 9.54 15.77 C8.11 16.22, 6.37 15.73, 5.02 15.2 C3.68 14.68, 2.39 14, 1.47 12.63 C0.56 11.26, -0.84 8.76, -0.47 7 C-0.09 5.23, 2.25 3.27, 3.72 2.05 C5.19 0.82, 7.48 0.09, 8.35 -0.37 C9.21 -0.82, 8.92 -0.96, 8.91 -0.7" stroke="none" stroke-width="0" fill="#ffec99"></path><path d="M7.28 -0.88 C8.89 -1.16, 11.61 0.06, 12.89 1.4 C14.17 2.74, 14.8 5.45, 14.95 7.14 C15.1 8.84, 14.66 10.13, 13.81 11.57 C12.96 13.01, 11.18 15.12, 9.86 15.78 C8.54 16.44, 7.41 15.9, 5.91 15.51 C4.41 15.13, 2 14.91, 0.86 13.48 C-0.28 12.05, -1.11 8.77, -0.94 6.93 C-0.76 5.1, 0.04 3.54, 1.91 2.48 C3.79 1.41, 8.67 0.88, 10.3 0.53 C11.94 0.19, 11.76 0.21, 11.71 0.41" stroke="#f08c00" stroke-width="1.5" fill="none" stroke-dasharray="1.5 7"></path></g><g transform="translate(959.7393763249095 848.7674365436962) rotate(0 125.73989868164062 12.5)"><text x="125.73989868164062" y="0" font-family="Virgil, Segoe UI Emoji" font-size="20px" fill="#1e1e1e" text-anchor="middle" style="white-space: pre;" direction="ltr" dominant-baseline="text-before-edge">encolar teews a procesar</text></g><g stroke-linecap="round"><g transform="translate(995.8721026245746 814.2398828974801) rotate(0 -129.6838724139988 -36.993807478089025)"><path d="M-1.9 1 C-32.02 0.63, -138.85 8.71, -181.65 -3.71 C-224.46 -16.12, -245.65 -62.11, -258.75 -73.5" stroke="#c2255c" stroke-width="1.5" fill="none" stroke-dasharray="1.5 7"></path></g><g transform="translate(995.8721026245746 814.2398828974801) rotate(0 -129.6838724139988 -36.993807478089025)"><path d="M-231.62 -60.92 C-236.82 -61.61, -245.89 -67.91, -255.98 -75.53" stroke="#c2255c" stroke-width="1.5" fill="none" stroke-dasharray="1.5 5"></path></g><g transform="translate(995.8721026245746 814.2398828974801) rotate(0 -129.6838724139988 -36.993807478089025)"><path d="M-247.58 -48.02 C-248.39 -51.93, -253.21 -61.67, -255.98 -75.53" stroke="#c2255c" stroke-width="1.5" fill="none" stroke-dasharray="1.5 5"></path></g></g><mask></mask><g transform="translate(848.3183803845793 783.5102733397528) rotate(312.2074260504187 22.679977416992188 12.5)"><text x="22.679977416992188" y="0" font-family="Virgil, Segoe UI Emoji" font-size="20px" fill="#1e1e1e" text-anchor="middle" style="white-space: pre;" direction="ltr" dominant-baseline="text-before-edge">twee</text></g><g stroke-linecap="round" transform="translate(829.8943781506757 806.6973607338514) rotate(0 7.604232472211152 8.220871194273343)"><path d="M10.27 -0.38 C11.81 0.03, 14.02 1.88, 14.73 3.45 C15.43 5.03, 14.83 7.28, 14.51 9.07 C14.18 10.86, 13.92 12.93, 12.78 14.16 C11.64 15.4, 9.25 16.27, 7.68 16.49 C6.11 16.7, 4.57 16.34, 3.37 15.47 C2.17 14.6, 0.96 13.03, 0.49 11.27 C0.03 9.52, -0.16 6.83, 0.57 4.94 C1.3 3.05, 3.15 0.81, 4.85 -0.07 C6.54 -0.95, 9.69 -0.56, 10.74 -0.33 C11.8 -0.1, 11.29 1.04, 11.18 1.33" stroke="none" stroke-width="0" fill="#ffec99"></path><path d="M10.37 0.88 C11.9 1.4, 14.27 3.52, 15.17 4.93 C16.07 6.34, 16.1 7.79, 15.75 9.34 C15.4 10.89, 14.34 13.05, 13.09 14.22 C11.84 15.39, 10.06 16.43, 8.25 16.34 C6.44 16.25, 3.69 14.84, 2.24 13.68 C0.78 12.51, -0.35 10.85, -0.5 9.34 C-0.65 7.83, 0.28 6.27, 1.33 4.63 C2.38 2.99, 4.03 0, 5.79 -0.51 C7.55 -1.02, 10.82 0.93, 11.91 1.57 C13.01 2.22, 12.57 3.31, 12.36 3.38" stroke="#f08c00" stroke-width="1.5" fill="none" stroke-dasharray="1.5 7"></path></g><g stroke-linecap="round"><g transform="translate(838.8538165551956 685.9946836401048) rotate(0 178.39186966812906 -182.43588303247063)"><path d="M0.07 2.31 C24.12 -9.59, 84.13 -11.33, 143.39 -72.59 C202.65 -133.85, 319.76 -316.9, 355.61 -365.25" stroke="#f08c00" stroke-width="1.5" fill="none" stroke-dasharray="1.5 7"></path></g><g transform="translate(838.8538165551956 685.9946836401048) rotate(0 178.39186966812906 -182.43588303247063)"><path d="M26.18 -20.79 C19.82 -13.67, 10.05 -4.4, 3.16 3.16" stroke="#f08c00" stroke-width="1.5" fill="none" stroke-dasharray="1.5 5"></path></g><g transform="translate(838.8538165551956 685.9946836401048) rotate(0 178.39186966812906 -182.43588303247063)"><path d="M33.37 -1.57 C25.26 0.45, 13.59 4.61, 3.16 3.16" stroke="#f08c00" stroke-width="1.5" fill="none" stroke-dasharray="1.5 5"></path></g><g transform="translate(838.8538165551956 685.9946836401048) rotate(0 178.39186966812906 -182.43588303247063)"><path d="M351.32 -339.84 C353.44 -345.62, 351.76 -349.24, 358.7 -364.4" stroke="#f08c00" stroke-width="1.5" fill="none" stroke-dasharray="1.5 5"></path></g><g transform="translate(838.8538165551956 685.9946836401048) rotate(0 178.39186966812906 -182.43588303247063)"><path d="M334.44 -351.51 C340.95 -354.2, 343.75 -354.72, 358.7 -364.4" stroke="#f08c00" stroke-width="1.5" fill="none" stroke-dasharray="1.5 5"></path></g></g><mask></mask><g transform="translate(1005.2534682615706 509.0777113392023) rotate(310.60141121404047 34.59996032714844 12.5)"><text x="34.59996032714844" y="0" font-family="Virgil, Segoe UI Emoji" font-size="20px" fill="#1e1e1e" text-anchor="middle" style="white-space: pre;" direction="ltr" dominant-baseline="text-before-edge">timeline</text></g><g stroke-linecap="round" transform="translate(1184.5295837880067 236.5888030823943) rotate(0 56.32368262651721 18.386723501592797)"><path d="M56.61 1.37 L111.7 17.43 L56.76 36.21 L-1.84 17.64" stroke="none" stroke-width="0" fill="#fd8888" fill-rule="evenodd"></path><path d="M57 0 C71.54 5.29, 87.32 11.6, 112.65 19 M57 0 C68.77 4.41, 82.06 8.07, 112.65 19 M112.65 19 C99.36 23.73, 84.69 26.69, 57 36.77 M112.65 19 C90.49 26.26, 67.87 34.3, 57 36.77 M57 36.77 C41.83 33.49, 24.48 25.51, 0 19 M57 36.77 C38.99 30.87, 21.5 24.8, 0 19 M0 19 C12.99 15.16, 24.23 10.07, 57 0 M0 19 C20.72 11.9, 41.52 5.11, 57 0" stroke="#c92a2a" stroke-width="1" fill="none"></path></g><g stroke-linecap="round" transform="translate(1184.5295837880067 227.71702315413575) rotate(0 56.32368262651721 18.386723501592797)"><path d="M56.06 -1.57 L112.41 18.44 L55.16 35.42 L-1.46 18.97" stroke="none" stroke-width="0" fill="#fd8888" fill-rule="evenodd"></path><path d="M57 0 C69.81 5.44, 82.68 10.02, 112.65 19 M57 0 C74.36 5.38, 90.35 11.19, 112.65 19 M112.65 19 C93.16 23.72, 75.38 29.65, 57 36.77 M112.65 19 C91.48 26.27, 70.58 32.42, 57 36.77 M57 36.77 C40.22 31.13, 27.58 27.04, 0 19 M57 36.77 C38.77 29.8, 19.31 25.1, 0 19 M0 19 C17.37 12.38, 40 6.91, 57 0 M0 19 C20.11 12.5, 40.21 6.13, 57 0" stroke="#c92a2a" stroke-width="1" fill="none"></path></g><g stroke-linecap="round" transform="translate(1184.5295837880067 215.0864635594237) rotate(0 56.32368262651721 18.386723501592797)"><path d="M56.76 -0.56 L110.8 17.64 L55.54 36.74 L-1.97 18.99" stroke="none" stroke-width="0" fill="#fd8888" fill-rule="evenodd"></path><path d="M57 0 C71.12 5.79, 88.59 9.5, 112.65 19 M57 0 C74.69 6.07, 93.79 12.88, 112.65 19 M112.65 19 C98.03 21.97, 80.99 29.5, 57 36.77 M112.65 19 C96.9 24.52, 81.46 29.3, 57 36.77 M57 36.77 C35.49 28.53, 13.72 22.29, 0 19 M57 36.77 C41.75 31.85, 28.33 27.14, 0 19 M0 19 C20.74 13.59, 39.75 6.09, 57 0 M0 19 C17.83 13.5, 35.57 6.02, 57 0" stroke="#c92a2a" stroke-width="1" fill="none"></path></g><g stroke-linecap="round" transform="translate(1184.5295837880067 202.5547912621263) rotate(0 56.32368262651721 18.386723501592797)"><path d="M55.16 -1.36 L111.19 18.97 L55.03 36.76 L-0.39 17.94" stroke="none" stroke-width="0" fill="#fd8888" fill-rule="evenodd"></path><path d="M57 0 C75.52 5.09, 94.49 13.51, 112.65 19 M57 0 C72.63 5.71, 87.27 10.56, 112.65 19 M112.65 19 C101.94 22.76, 87.57 25.77, 57 36.77 M112.65 19 C91.45 25.81, 71.95 31.41, 57 36.77 M57 36.77 C44.66 32.16, 30.45 29.02, 0 19 M57 36.77 C45.79 33.14, 34.04 28.55, 0 19 M0 19 C18.16 12.9, 34.59 7.06, 57 0 M0 19 C18.52 11.51, 37.83 5.69, 57 0" stroke="#c92a2a" stroke-width="1" fill="none"></path></g><g transform="translate(1206.3592143300687 152.46174625696767) rotate(0 32.84998321533203 12.5)"><text x="32.84998321533203" y="0" font-family="Virgil, Segoe UI Emoji" font-size="20px" fill="#1e1e1e" text-anchor="middle" style="white-space: pre;" direction="ltr" dominant-baseline="text-before-edge">REDIS</text></g><g stroke-linecap="round" transform="translate(10 10) rotate(0 690.3899772384609 468.99503402392247)"><path d="M32 0 C407.98 5.61, 783.29 3.47, 1348.78 0 M1348.78 0 C1372.73 0.61, 1380.39 9.34, 1380.78 32 M1380.78 32 C1378.58 252.78, 1376.62 473.03, 1380.78 905.99 M1380.78 905.99 C1383.4 924.73, 1373.16 936.05, 1348.78 937.99 M1348.78 937.99 C894.36 947.28, 438.08 948.3, 32 937.99 M32 937.99 C7.91 938.39, 2.82 924.09, 0 905.99 M0 905.99 C-5.87 567.75, -4.14 230.38, 0 32 M0 32 C-1.07 11.58, 8 -3.77, 32 0" stroke="transparent" stroke-width="1.5" fill="none" stroke-dasharray="1.5 7"></path></g></svg>